<svg width="1024" height="760" viewBox="0 0 1024 760" xmlns="http://www.w3.org/2000/svg">
<rect x="0" y="0" width="1023" height="759" opacity="1" fill="#FFFFFF" stroke="none"/>
<line opacity="0.1" stroke="#000000" stroke-width="1" x1="50" y1="709" x2="50" y2="49"/>
<line opacity="0.1" stroke="#000000" stroke-width="1" x1="182" y1="709" x2="182" y2="49"/>
<line opacity="0.1" stroke="#000000" stroke-width="1" x1="314" y1="709" x2="314" y2="49"/>
<line opacity="0.1" stroke="#000000" stroke-width="1" x1="446" y1="709" x2="446" y2="49"/>
<line opacity="0.1" stroke="#000000" stroke-width="1" x1="578" y1="709" x2="578" y2="49"/>
<line opacity="0.1" stroke="#000000" stroke-width="1" x1="710" y1="709" x2="710" y2="49"/>
<line opacity="0.1" stroke="#000000" stroke-width="1" x1="842" y1="709" x2="842" y2="49"/>
<line opacity="0.1" stroke="#000000" stroke-width="1" x1="50" y1="709" x2="974" y2="709"/>
<line opacity="0.1" stroke="#000000" stroke-width="1" x1="50" y1="702" x2="974" y2="702"/>
<line opacity="0.1" stroke="#000000" stroke-width="1" x1="50" y1="695" x2="974" y2="695"/>
<line opacity="0.1" stroke="#000000" stroke-width="1" x1="50" y1="689" x2="974" y2="689"/>
<line opacity="0.1" stroke="#000000" stroke-width="1" x1="50" y1="682" x2="974" y2="682"/>
<line opacity="0.1" stroke="#000000" stroke-width="1" x1="50" y1="676" x2="974" y2="676"/>
<line opacity="0.1" stroke="#000000" stroke-width="1" x1="50" y1="669" x2="974" y2="669"/>
<line opacity="0.1" stroke="#000000" stroke-width="1" x1="50" y1="662" x2="974" y2="662"/>
<line opacity="0.1" stroke="#000000" stroke-width="1" x1="50" y1="656" x2="974" y2="656"/>
<line opacity="0.1" stroke="#000000" stroke-width="1" x1="50" y1="649" x2="974" y2="649"/>
<line opacity="0.1" stroke="#000000" stroke-width="1" x1="50" y1="643" x2="974" y2="643"/>
<line opacity="0.1" stroke="#000000" stroke-width="1" x1="50" y1="636" x2="974" y2="636"/>
<line opacity="0.1" stroke="#000000" stroke-width="1" x1="50" y1="629" x2="974" y2="629"/>
<line opacity="0.1" stroke="#000000" stroke-width="1" x1="50" y1="623" x2="974" y2="623"/>
<line opacity="0.1" stroke="#000000" stroke-width="1" x1="50" y1="616" x2="974" y2="616"/>
<line opacity="0.1" stroke="#000000" stroke-width="1" x1="50" y1="610" x2="974" y2="610"/>
<line opacity="0.1" stroke="#000000" stroke-width="1" x1="50" y1="603" x2="974" y2="603"/>
<line opacity="0.1" stroke="#000000" stroke-width="1" x1="50" y1="596" x2="974" y2="596"/>
<line opacity="0.1" stroke="#000000" stroke-width="1" x1="50" y1="590" x2="974" y2="590"/>
<line opacity="0.1" stroke="#000000" stroke-width="1" x1="50" y1="583" x2="974" y2="583"/>
<line opacity="0.1" stroke="#000000" stroke-width="1" x1="50" y1="577" x2="974" y2="577"/>
<line opacity="0.1" stroke="#000000" stroke-width="1" x1="50" y1="570" x2="974" y2="570"/>
<line opacity="0.1" stroke="#000000" stroke-width="1" x1="50" y1="563" x2="974" y2="563"/>
<line opacity="0.1" stroke="#000000" stroke-width="1" x1="50" y1="557" x2="974" y2="557"/>
<line opacity="0.1" stroke="#000000" stroke-width="1" x1="50" y1="550" x2="974" y2="550"/>
<line opacity="0.1" stroke="#000000" stroke-width="1" x1="50" y1="544" x2="974" y2="544"/>
<line opacity="0.1" stroke="#000000" stroke-width="1" x1="50" y1="537" x2="974" y2="537"/>
<line opacity="0.1" stroke="#000000" stroke-width="1" x1="50" y1="530" x2="974" y2="530"/>
<line opacity="0.1" stroke="#000000" stroke-width="1" x1="50" y1="524" x2="974" y2="524"/>
<line opacity="0.1" stroke="#000000" stroke-width="1" x1="50" y1="517" x2="974" y2="517"/>
<line opacity="0.1" stroke="#000000" stroke-width="1" x1="50" y1="511" x2="974" y2="511"/>
<line opacity="0.1" stroke="#000000" stroke-width="1" x1="50" y1="504" x2="974" y2="504"/>
<line opacity="0.1" stroke="#000000" stroke-width="1" x1="50" y1="497" x2="974" y2="497"/>
<line opacity="0.1" stroke="#000000" stroke-width="1" x1="50" y1="491" x2="974" y2="491"/>
<line opacity="0.1" stroke="#000000" stroke-width="1" x1="50" y1="484" x2="974" y2="484"/>
<line opacity="0.1" stroke="#000000" stroke-width="1" x1="50" y1="478" x2="974" y2="478"/>
<line opacity="0.1" stroke="#000000" stroke-width="1" x1="50" y1="471" x2="974" y2="471"/>
<line opacity="0.1" stroke="#000000" stroke-width="1" x1="50" y1="464" x2="974" y2="464"/>
<line opacity="0.1" stroke="#000000" stroke-width="1" x1="50" y1="458" x2="974" y2="458"/>
<line opacity="0.1" stroke="#000000" stroke-width="1" x1="50" y1="451" x2="974" y2="451"/>
<line opacity="0.1" stroke="#000000" stroke-width="1" x1="50" y1="445" x2="974" y2="445"/>
<line opacity="0.1" stroke="#000000" stroke-width="1" x1="50" y1="438" x2="974" y2="438"/>
<line opacity="0.1" stroke="#000000" stroke-width="1" x1="50" y1="431" x2="974" y2="431"/>
<line opacity="0.1" stroke="#000000" stroke-width="1" x1="50" y1="425" x2="974" y2="425"/>
<line opacity="0.1" stroke="#000000" stroke-width="1" x1="50" y1="418" x2="974" y2="418"/>
<line opacity="0.1" stroke="#000000" stroke-width="1" x1="50" y1="412" x2="974" y2="412"/>
<line opacity="0.1" stroke="#000000" stroke-width="1" x1="50" y1="405" x2="974" y2="405"/>
<line opacity="0.1" stroke="#000000" stroke-width="1" x1="50" y1="398" x2="974" y2="398"/>
<line opacity="0.1" stroke="#000000" stroke-width="1" x1="50" y1="392" x2="974" y2="392"/>
<line opacity="0.1" stroke="#000000" stroke-width="1" x1="50" y1="385" x2="974" y2="385"/>
<line opacity="0.1" stroke="#000000" stroke-width="1" x1="50" y1="379" x2="974" y2="379"/>
<line opacity="0.1" stroke="#000000" stroke-width="1" x1="50" y1="372" x2="974" y2="372"/>
<line opacity="0.1" stroke="#000000" stroke-width="1" x1="50" y1="365" x2="974" y2="365"/>
<line opacity="0.1" stroke="#000000" stroke-width="1" x1="50" y1="359" x2="974" y2="359"/>
<line opacity="0.1" stroke="#000000" stroke-width="1" x1="50" y1="352" x2="974" y2="352"/>
<line opacity="0.1" stroke="#000000" stroke-width="1" x1="50" y1="346" x2="974" y2="346"/>
<line opacity="0.1" stroke="#000000" stroke-width="1" x1="50" y1="339" x2="974" y2="339"/>
<line opacity="0.1" stroke="#000000" stroke-width="1" x1="50" y1="332" x2="974" y2="332"/>
<line opacity="0.1" stroke="#000000" stroke-width="1" x1="50" y1="326" x2="974" y2="326"/>
<line opacity="0.1" stroke="#000000" stroke-width="1" x1="50" y1="319" x2="974" y2="319"/>
<line opacity="0.1" stroke="#000000" stroke-width="1" x1="50" y1="313" x2="974" y2="313"/>
<line opacity="0.1" stroke="#000000" stroke-width="1" x1="50" y1="306" x2="974" y2="306"/>
<line opacity="0.1" stroke="#000000" stroke-width="1" x1="50" y1="299" x2="974" y2="299"/>
<line opacity="0.1" stroke="#000000" stroke-width="1" x1="50" y1="293" x2="974" y2="293"/>
<line opacity="0.1" stroke="#000000" stroke-width="1" x1="50" y1="286" x2="974" y2="286"/>
<line opacity="0.1" stroke="#000000" stroke-width="1" x1="50" y1="280" x2="974" y2="280"/>
<line opacity="0.1" stroke="#000000" stroke-width="1" x1="50" y1="273" x2="974" y2="273"/>
<line opacity="0.1" stroke="#000000" stroke-width="1" x1="50" y1="266" x2="974" y2="266"/>
<line opacity="0.1" stroke="#000000" stroke-width="1" x1="50" y1="260" x2="974" y2="260"/>
<line opacity="0.1" stroke="#000000" stroke-width="1" x1="50" y1="253" x2="974" y2="253"/>
<line opacity="0.1" stroke="#000000" stroke-width="1" x1="50" y1="247" x2="974" y2="247"/>
<line opacity="0.1" stroke="#000000" stroke-width="1" x1="50" y1="240" x2="974" y2="240"/>
<line opacity="0.1" stroke="#000000" stroke-width="1" x1="50" y1="233" x2="974" y2="233"/>
<line opacity="0.1" stroke="#000000" stroke-width="1" x1="50" y1="227" x2="974" y2="227"/>
<line opacity="0.1" stroke="#000000" stroke-width="1" x1="50" y1="220" x2="974" y2="220"/>
<line opacity="0.1" stroke="#000000" stroke-width="1" x1="50" y1="214" x2="974" y2="214"/>
<line opacity="0.1" stroke="#000000" stroke-width="1" x1="50" y1="207" x2="974" y2="207"/>
<line opacity="0.1" stroke="#000000" stroke-width="1" x1="50" y1="200" x2="974" y2="200"/>
<line opacity="0.1" stroke="#000000" stroke-width="1" x1="50" y1="194" x2="974" y2="194"/>
<line opacity="0.1" stroke="#000000" stroke-width="1" x1="50" y1="187" x2="974" y2="187"/>
<line opacity="0.1" stroke="#000000" stroke-width="1" x1="50" y1="181" x2="974" y2="181"/>
<line opacity="0.1" stroke="#000000" stroke-width="1" x1="50" y1="174" x2="974" y2="174"/>
<line opacity="0.1" stroke="#000000" stroke-width="1" x1="50" y1="167" x2="974" y2="167"/>
<line opacity="0.1" stroke="#000000" stroke-width="1" x1="50" y1="161" x2="974" y2="161"/>
<line opacity="0.1" stroke="#000000" stroke-width="1" x1="50" y1="154" x2="974" y2="154"/>
<line opacity="0.1" stroke="#000000" stroke-width="1" x1="50" y1="148" x2="974" y2="148"/>
<line opacity="0.1" stroke="#000000" stroke-width="1" x1="50" y1="141" x2="974" y2="141"/>
<line opacity="0.1" stroke="#000000" stroke-width="1" x1="50" y1="134" x2="974" y2="134"/>
<line opacity="0.1" stroke="#000000" stroke-width="1" x1="50" y1="128" x2="974" y2="128"/>
<line opacity="0.1" stroke="#000000" stroke-width="1" x1="50" y1="121" x2="974" y2="121"/>
<line opacity="0.1" stroke="#000000" stroke-width="1" x1="50" y1="115" x2="974" y2="115"/>
<line opacity="0.1" stroke="#000000" stroke-width="1" x1="50" y1="108" x2="974" y2="108"/>
<line opacity="0.1" stroke="#000000" stroke-width="1" x1="50" y1="101" x2="974" y2="101"/>
<line opacity="0.1" stroke="#000000" stroke-width="1" x1="50" y1="95" x2="974" y2="95"/>
<line opacity="0.1" stroke="#000000" stroke-width="1" x1="50" y1="88" x2="974" y2="88"/>
<line opacity="0.1" stroke="#000000" stroke-width="1" x1="50" y1="82" x2="974" y2="82"/>
<line opacity="0.1" stroke="#000000" stroke-width="1" x1="50" y1="75" x2="974" y2="75"/>
<line opacity="0.1" stroke="#000000" stroke-width="1" x1="50" y1="68" x2="974" y2="68"/>
<line opacity="0.1" stroke="#000000" stroke-width="1" x1="50" y1="62" x2="974" y2="62"/>
<line opacity="0.1" stroke="#000000" stroke-width="1" x1="50" y1="55" x2="974" y2="55"/>
<line opacity="0.1" stroke="#000000" stroke-width="1" x1="50" y1="49" x2="974" y2="49"/>
<line opacity="0.2" stroke="#000000" stroke-width="1" x1="50" y1="709" x2="50" y2="49"/>
<line opacity="0.2" stroke="#000000" stroke-width="1" x1="182" y1="709" x2="182" y2="49"/>
<line opacity="0.2" stroke="#000000" stroke-width="1" x1="314" y1="709" x2="314" y2="49"/>
<line opacity="0.2" stroke="#000000" stroke-width="1" x1="446" y1="709" x2="446" y2="49"/>
<line opacity="0.2" stroke="#000000" stroke-width="1" x1="578" y1="709" x2="578" y2="49"/>
<line opacity="0.2" stroke="#000000" stroke-width="1" x1="710" y1="709" x2="710" y2="49"/>
<line opacity="0.2" stroke="#000000" stroke-width="1" x1="842" y1="709" x2="842" y2="49"/>
<line opacity="0.2" stroke="#000000" stroke-width="1" x1="50" y1="709" x2="974" y2="709"/>
<line opacity="0.2" stroke="#000000" stroke-width="1" x1="50" y1="643" x2="974" y2="643"/>
<line opacity="0.2" stroke="#000000" stroke-width="1" x1="50" y1="577" x2="974" y2="577"/>
<line opacity="0.2" stroke="#000000" stroke-width="1" x1="50" y1="511" x2="974" y2="511"/>
<line opacity="0.2" stroke="#000000" stroke-width="1" x1="50" y1="445" x2="974" y2="445"/>
<line opacity="0.2" stroke="#000000" stroke-width="1" x1="50" y1="379" x2="974" y2="379"/>
<line opacity="0.2" stroke="#000000" stroke-width="1" x1="50" y1="313" x2="974" y2="313"/>
<line opacity="0.2" stroke="#000000" stroke-width="1" x1="50" y1="247" x2="974" y2="247"/>
<line opacity="0.2" stroke="#000000" stroke-width="1" x1="50" y1="181" x2="974" y2="181"/>
<line opacity="0.2" stroke="#000000" stroke-width="1" x1="50" y1="115" x2="974" y2="115"/>
<line opacity="0.2" stroke="#000000" stroke-width="1" x1="50" y1="49" x2="974" y2="49"/>
<polyline fill="none" opacity="1" stroke="#000000" stroke-width="1" points="50,49 974,49 "/>
<text x="50" y="40" dy="-0.5ex" text-anchor="middle" font-family="sans-serif" font-size="9.67741935483871" opacity="1" fill="#000000">
0 of 7
</text>
<polyline fill="none" opacity="1" stroke="#000000" stroke-width="1" points="50,44 50,49 "/>
<text x="182" y="40" dy="-0.5ex" text-anchor="middle" font-family="sans-serif" font-size="9.67741935483871" opacity="1" fill="#000000">
1 of 7
</text>
<polyline fill="none" opacity="1" stroke="#000000" stroke-width="1" points="182,44 182,49 "/>
<text x="314" y="40" dy="-0.5ex" text-anchor="middle" font-family="sans-serif" font-size="9.67741935483871" opacity="1" fill="#000000">
2 of 7
</text>
<polyline fill="none" opacity="1" stroke="#000000" stroke-width="1" points="314,44 314,49 "/>
<text x="446" y="40" dy="-0.5ex" text-anchor="middle" font-family="sans-serif" font-size="9.67741935483871" opacity="1" fill="#000000">
3 of 7
</text>
<polyline fill="none" opacity="1" stroke="#000000" stroke-width="1" points="446,44 446,49 "/>
<text x="578" y="40" dy="-0.5ex" text-anchor="middle" font-family="sans-serif" font-size="9.67741935483871" opacity="1" fill="#000000">
4 of 7
</text>
<polyline fill="none" opacity="1" stroke="#000000" stroke-width="1" points="578,44 578,49 "/>
<text x="710" y="40" dy="-0.5ex" text-anchor="middle" font-family="sans-serif" font-size="9.67741935483871" opacity="1" fill="#000000">
5 of 7
</text>
<polyline fill="none" opacity="1" stroke="#000000" stroke-width="1" points="710,44 710,49 "/>
<text x="842" y="40" dy="-0.5ex" text-anchor="middle" font-family="sans-serif" font-size="9.67741935483871" opacity="1" fill="#000000">
6 of 7
</text>
<polyline fill="none" opacity="1" stroke="#000000" stroke-width="1" points="842,44 842,49 "/>
<polyline fill="none" opacity="1" stroke="#000000" stroke-width="1" points="49,50 49,710 "/>
<text x="40" y="709" dy="0.5ex" text-anchor="end" font-family="sans-serif" font-size="9.67741935483871" opacity="1" fill="#000000">
0.0
</text>
<polyline fill="none" opacity="1" stroke="#000000" stroke-width="1" points="44,709 49,709 "/>
<text x="40" y="643" dy="0.5ex" text-anchor="end" font-family="sans-serif" font-size="9.67741935483871" opacity="1" fill="#000000">
1.0
</text>
<polyline fill="none" opacity="1" stroke="#000000" stroke-width="1" points="44,643 49,643 "/>
<text x="40" y="577" dy="0.5ex" text-anchor="end" font-family="sans-serif" font-size="9.67741935483871" opacity="1" fill="#000000">
2.0
</text>
<polyline fill="none" opacity="1" stroke="#000000" stroke-width="1" points="44,577 49,577 "/>
<text x="40" y="511" dy="0.5ex" text-anchor="end" font-family="sans-serif" font-size="9.67741935483871" opacity="1" fill="#000000">
3.0
</text>
<polyline fill="none" opacity="1" stroke="#000000" stroke-width="1" points="44,511 49,511 "/>
<text x="40" y="445" dy="0.5ex" text-anchor="end" font-family="sans-serif" font-size="9.67741935483871" opacity="1" fill="#000000">
4.0
</text>
<polyline fill="none" opacity="1" stroke="#000000" stroke-width="1" points="44,445 49,445 "/>
<text x="40" y="379" dy="0.5ex" text-anchor="end" font-family="sans-serif" font-size="9.67741935483871" opacity="1" fill="#000000">
5.0
</text>
<polyline fill="none" opacity="1" stroke="#000000" stroke-width="1" points="44,379 49,379 "/>
<text x="40" y="313" dy="0.5ex" text-anchor="end" font-family="sans-serif" font-size="9.67741935483871" opacity="1" fill="#000000">
6.0
</text>
<polyline fill="none" opacity="1" stroke="#000000" stroke-width="1" points="44,313 49,313 "/>
<text x="40" y="247" dy="0.5ex" text-anchor="end" font-family="sans-serif" font-size="9.67741935483871" opacity="1" fill="#000000">
7.0
</text>
<polyline fill="none" opacity="1" stroke="#000000" stroke-width="1" points="44,247 49,247 "/>
<text x="40" y="181" dy="0.5ex" text-anchor="end" font-family="sans-serif" font-size="9.67741935483871" opacity="1" fill="#000000">
8.0
</text>
<polyline fill="none" opacity="1" stroke="#000000" stroke-width="1" points="44,181 49,181 "/>
<text x="40" y="115" dy="0.5ex" text-anchor="end" font-family="sans-serif" font-size="9.67741935483871" opacity="1" fill="#000000">
9.0
</text>
<polyline fill="none" opacity="1" stroke="#000000" stroke-width="1" points="44,115 49,115 "/>
<polyline fill="none" opacity="1" stroke="#000000" stroke-width="1" points="50,710 974,710 "/>
<text x="50" y="720" dy="0.76em" text-anchor="middle" font-family="sans-serif" font-size="9.67741935483871" opacity="1" fill="#000000">
0 of 7
</text>
<polyline fill="none" opacity="1" stroke="#000000" stroke-width="1" points="50,710 50,715 "/>
<text x="182" y="720" dy="0.76em" text-anchor="middle" font-family="sans-serif" font-size="9.67741935483871" opacity="1" fill="#000000">
1 of 7
</text>
<polyline fill="none" opacity="1" stroke="#000000" stroke-width="1" points="182,710 182,715 "/>
<text x="314" y="720" dy="0.76em" text-anchor="middle" font-family="sans-serif" font-size="9.67741935483871" opacity="1" fill="#000000">
2 of 7
</text>
<polyline fill="none" opacity="1" stroke="#000000" stroke-width="1" points="314,710 314,715 "/>
<text x="446" y="720" dy="0.76em" text-anchor="middle" font-family="sans-serif" font-size="9.67741935483871" opacity="1" fill="#000000">
3 of 7
</text>
<polyline fill="none" opacity="1" stroke="#000000" stroke-width="1" points="446,710 446,715 "/>
<text x="578" y="720" dy="0.76em" text-anchor="middle" font-family="sans-serif" font-size="9.67741935483871" opacity="1" fill="#000000">
4 of 7
</text>
<polyline fill="none" opacity="1" stroke="#000000" stroke-width="1" points="578,710 578,715 "/>
<text x="710" y="720" dy="0.76em" text-anchor="middle" font-family="sans-serif" font-size="9.67741935483871" opacity="1" fill="#000000">
5 of 7
</text>
<polyline fill="none" opacity="1" stroke="#000000" stroke-width="1" points="710,710 710,715 "/>
<text x="842" y="720" dy="0.76em" text-anchor="middle" font-family="sans-serif" font-size="9.67741935483871" opacity="1" fill="#000000">
6 of 7
</text>
<polyline fill="none" opacity="1" stroke="#000000" stroke-width="1" points="842,710 842,715 "/>
<polyline fill="none" opacity="1" stroke="#000000" stroke-width="1" points="974,50 974,710 "/>
<text x="1005" y="709" dy="0.5ex" text-anchor="end" font-family="sans-serif" font-size="9.67741935483871" opacity="1" fill="#000000">
0.0
</text>
<polyline fill="none" opacity="1" stroke="#000000" stroke-width="1" points="974,709 979,709 "/>
<text x="1005" y="643" dy="0.5ex" text-anchor="end" font-family="sans-serif" font-size="9.67741935483871" opacity="1" fill="#000000">
1.0
</text>
<polyline fill="none" opacity="1" stroke="#000000" stroke-width="1" points="974,643 979,643 "/>
<text x="1005" y="577" dy="0.5ex" text-anchor="end" font-family="sans-serif" font-size="9.67741935483871" opacity="1" fill="#000000">
2.0
</text>
<polyline fill="none" opacity="1" stroke="#000000" stroke-width="1" points="974,577 979,577 "/>
<text x="1005" y="511" dy="0.5ex" text-anchor="end" font-family="sans-serif" font-size="9.67741935483871" opacity="1" fill="#000000">
3.0
</text>
<polyline fill="none" opacity="1" stroke="#000000" stroke-width="1" points="974,511 979,511 "/>
<text x="1005" y="445" dy="0.5ex" text-anchor="end" font-family="sans-serif" font-size="9.67741935483871" opacity="1" fill="#000000">
4.0
</text>
<polyline fill="none" opacity="1" stroke="#000000" stroke-width="1" points="974,445 979,445 "/>
<text x="1005" y="379" dy="0.5ex" text-anchor="end" font-family="sans-serif" font-size="9.67741935483871" opacity="1" fill="#000000">
5.0
</text>
<polyline fill="none" opacity="1" stroke="#000000" stroke-width="1" points="974,379 979,379 "/>
<text x="1005" y="313" dy="0.5ex" text-anchor="end" font-family="sans-serif" font-size="9.67741935483871" opacity="1" fill="#000000">
6.0
</text>
<polyline fill="none" opacity="1" stroke="#000000" stroke-width="1" points="974,313 979,313 "/>
<text x="1005" y="247" dy="0.5ex" text-anchor="end" font-family="sans-serif" font-size="9.67741935483871" opacity="1" fill="#000000">
7.0
</text>
<polyline fill="none" opacity="1" stroke="#000000" stroke-width="1" points="974,247 979,247 "/>
<text x="1005" y="181" dy="0.5ex" text-anchor="end" font-family="sans-serif" font-size="9.67741935483871" opacity="1" fill="#000000">
8.0
</text>
<polyline fill="none" opacity="1" stroke="#000000" stroke-width="1" points="974,181 979,181 "/>
<text x="1005" y="115" dy="0.5ex" text-anchor="end" font-family="sans-serif" font-size="9.67741935483871" opacity="1" fill="#000000">
9.0
</text>
<polyline fill="none" opacity="1" stroke="#000000" stroke-width="1" points="974,115 979,115 "/>
</svg>
