<svg width="300" height="200" viewBox="0 0 300 200" xmlns="http://www.w3.org/2000/svg">
<rect x="0" y="0" width="299" height="199" opacity="1" fill="#FFFFFF" stroke="none"/>
<line opacity="0.1" stroke="#000000" stroke-width="1" x1="33" y1="169" x2="33" y2="9"/>
<line opacity="0.1" stroke="#000000" stroke-width="1" x1="36" y1="169" x2="36" y2="9"/>
<line opacity="0.1" stroke="#000000" stroke-width="1" x1="39" y1="169" x2="39" y2="9"/>
<line opacity="0.1" stroke="#000000" stroke-width="1" x1="43" y1="169" x2="43" y2="9"/>
<line opacity="0.1" stroke="#000000" stroke-width="1" x1="46" y1="169" x2="46" y2="9"/>
<line opacity="0.1" stroke="#000000" stroke-width="1" x1="49" y1="169" x2="49" y2="9"/>
<line opacity="0.1" stroke="#000000" stroke-width="1" x1="52" y1="169" x2="52" y2="9"/>
<line opacity="0.1" stroke="#000000" stroke-width="1" x1="56" y1="169" x2="56" y2="9"/>
<line opacity="0.1" stroke="#000000" stroke-width="1" x1="59" y1="169" x2="59" y2="9"/>
<line opacity="0.1" stroke="#000000" stroke-width="1" x1="62" y1="169" x2="62" y2="9"/>
<line opacity="0.1" stroke="#000000" stroke-width="1" x1="65" y1="169" x2="65" y2="9"/>
<line opacity="0.1" stroke="#000000" stroke-width="1" x1="69" y1="169" x2="69" y2="9"/>
<line opacity="0.1" stroke="#000000" stroke-width="1" x1="72" y1="169" x2="72" y2="9"/>
<line opacity="0.1" stroke="#000000" stroke-width="1" x1="75" y1="169" x2="75" y2="9"/>
<line opacity="0.1" stroke="#000000" stroke-width="1" x1="78" y1="169" x2="78" y2="9"/>
<line opacity="0.1" stroke="#000000" stroke-width="1" x1="82" y1="169" x2="82" y2="9"/>
<line opacity="0.1" stroke="#000000" stroke-width="1" x1="85" y1="169" x2="85" y2="9"/>
<line opacity="0.1" stroke="#000000" stroke-width="1" x1="88" y1="169" x2="88" y2="9"/>
<line opacity="0.1" stroke="#000000" stroke-width="1" x1="91" y1="169" x2="91" y2="9"/>
<line opacity="0.1" stroke="#000000" stroke-width="1" x1="95" y1="169" x2="95" y2="9"/>
<line opacity="0.1" stroke="#000000" stroke-width="1" x1="98" y1="169" x2="98" y2="9"/>
<line opacity="0.1" stroke="#000000" stroke-width="1" x1="101" y1="169" x2="101" y2="9"/>
<line opacity="0.1" stroke="#000000" stroke-width="1" x1="104" y1="169" x2="104" y2="9"/>
<line opacity="0.1" stroke="#000000" stroke-width="1" x1="108" y1="169" x2="108" y2="9"/>
<line opacity="0.1" stroke="#000000" stroke-width="1" x1="111" y1="169" x2="111" y2="9"/>
<line opacity="0.1" stroke="#000000" stroke-width="1" x1="114" y1="169" x2="114" y2="9"/>
<line opacity="0.1" stroke="#000000" stroke-width="1" x1="117" y1="169" x2="117" y2="9"/>
<line opacity="0.1" stroke="#000000" stroke-width="1" x1="121" y1="169" x2="121" y2="9"/>
<line opacity="0.1" stroke="#000000" stroke-width="1" x1="124" y1="169" x2="124" y2="9"/>
<line opacity="0.1" stroke="#000000" stroke-width="1" x1="127" y1="169" x2="127" y2="9"/>
<line opacity="0.1" stroke="#000000" stroke-width="1" x1="130" y1="169" x2="130" y2="9"/>
<line opacity="0.1" stroke="#000000" stroke-width="1" x1="134" y1="169" x2="134" y2="9"/>
<line opacity="0.1" stroke="#000000" stroke-width="1" x1="137" y1="169" x2="137" y2="9"/>
<line opacity="0.1" stroke="#000000" stroke-width="1" x1="140" y1="169" x2="140" y2="9"/>
<line opacity="0.1" stroke="#000000" stroke-width="1" x1="143" y1="169" x2="143" y2="9"/>
<line opacity="0.1" stroke="#000000" stroke-width="1" x1="147" y1="169" x2="147" y2="9"/>
<line opacity="0.1" stroke="#000000" stroke-width="1" x1="150" y1="169" x2="150" y2="9"/>
<line opacity="0.1" stroke="#000000" stroke-width="1" x1="153" y1="169" x2="153" y2="9"/>
<line opacity="0.1" stroke="#000000" stroke-width="1" x1="156" y1="169" x2="156" y2="9"/>
<line opacity="0.1" stroke="#000000" stroke-width="1" x1="160" y1="169" x2="160" y2="9"/>
<line opacity="0.1" stroke="#000000" stroke-width="1" x1="163" y1="169" x2="163" y2="9"/>
<line opacity="0.1" stroke="#000000" stroke-width="1" x1="166" y1="169" x2="166" y2="9"/>
<line opacity="0.1" stroke="#000000" stroke-width="1" x1="169" y1="169" x2="169" y2="9"/>
<line opacity="0.1" stroke="#000000" stroke-width="1" x1="173" y1="169" x2="173" y2="9"/>
<line opacity="0.1" stroke="#000000" stroke-width="1" x1="176" y1="169" x2="176" y2="9"/>
<line opacity="0.1" stroke="#000000" stroke-width="1" x1="179" y1="169" x2="179" y2="9"/>
<line opacity="0.1" stroke="#000000" stroke-width="1" x1="182" y1="169" x2="182" y2="9"/>
<line opacity="0.1" stroke="#000000" stroke-width="1" x1="186" y1="169" x2="186" y2="9"/>
<line opacity="0.1" stroke="#000000" stroke-width="1" x1="189" y1="169" x2="189" y2="9"/>
<line opacity="0.1" stroke="#000000" stroke-width="1" x1="192" y1="169" x2="192" y2="9"/>
<line opacity="0.1" stroke="#000000" stroke-width="1" x1="195" y1="169" x2="195" y2="9"/>
<line opacity="0.1" stroke="#000000" stroke-width="1" x1="199" y1="169" x2="199" y2="9"/>
<line opacity="0.1" stroke="#000000" stroke-width="1" x1="202" y1="169" x2="202" y2="9"/>
<line opacity="0.1" stroke="#000000" stroke-width="1" x1="205" y1="169" x2="205" y2="9"/>
<line opacity="0.1" stroke="#000000" stroke-width="1" x1="208" y1="169" x2="208" y2="9"/>
<line opacity="0.1" stroke="#000000" stroke-width="1" x1="212" y1="169" x2="212" y2="9"/>
<line opacity="0.1" stroke="#000000" stroke-width="1" x1="215" y1="169" x2="215" y2="9"/>
<line opacity="0.1" stroke="#000000" stroke-width="1" x1="218" y1="169" x2="218" y2="9"/>
<line opacity="0.1" stroke="#000000" stroke-width="1" x1="221" y1="169" x2="221" y2="9"/>
<line opacity="0.1" stroke="#000000" stroke-width="1" x1="225" y1="169" x2="225" y2="9"/>
<line opacity="0.1" stroke="#000000" stroke-width="1" x1="228" y1="169" x2="228" y2="9"/>
<line opacity="0.1" stroke="#000000" stroke-width="1" x1="231" y1="169" x2="231" y2="9"/>
<line opacity="0.1" stroke="#000000" stroke-width="1" x1="234" y1="169" x2="234" y2="9"/>
<line opacity="0.1" stroke="#000000" stroke-width="1" x1="238" y1="169" x2="238" y2="9"/>
<line opacity="0.1" stroke="#000000" stroke-width="1" x1="241" y1="169" x2="241" y2="9"/>
<line opacity="0.1" stroke="#000000" stroke-width="1" x1="244" y1="169" x2="244" y2="9"/>
<line opacity="0.1" stroke="#000000" stroke-width="1" x1="247" y1="169" x2="247" y2="9"/>
<line opacity="0.1" stroke="#000000" stroke-width="1" x1="251" y1="169" x2="251" y2="9"/>
<line opacity="0.1" stroke="#000000" stroke-width="1" x1="254" y1="169" x2="254" y2="9"/>
<line opacity="0.1" stroke="#000000" stroke-width="1" x1="257" y1="169" x2="257" y2="9"/>
<line opacity="0.1" stroke="#000000" stroke-width="1" x1="260" y1="169" x2="260" y2="9"/>
<line opacity="0.1" stroke="#000000" stroke-width="1" x1="264" y1="169" x2="264" y2="9"/>
<line opacity="0.1" stroke="#000000" stroke-width="1" x1="267" y1="169" x2="267" y2="9"/>
<line opacity="0.1" stroke="#000000" stroke-width="1" x1="270" y1="169" x2="270" y2="9"/>
<line opacity="0.1" stroke="#000000" stroke-width="1" x1="273" y1="169" x2="273" y2="9"/>
<line opacity="0.1" stroke="#000000" stroke-width="1" x1="277" y1="169" x2="277" y2="9"/>
<line opacity="0.1" stroke="#000000" stroke-width="1" x1="280" y1="169" x2="280" y2="9"/>
<line opacity="0.1" stroke="#000000" stroke-width="1" x1="283" y1="169" x2="283" y2="9"/>
<line opacity="0.1" stroke="#000000" stroke-width="1" x1="286" y1="169" x2="286" y2="9"/>
<line opacity="0.1" stroke="#000000" stroke-width="1" x1="290" y1="169" x2="290" y2="9"/>
<line opacity="0.1" stroke="#000000" stroke-width="1" x1="30" y1="166" x2="290" y2="166"/>
<line opacity="0.1" stroke="#000000" stroke-width="1" x1="30" y1="163" x2="290" y2="163"/>
<line opacity="0.1" stroke="#000000" stroke-width="1" x1="30" y1="161" x2="290" y2="161"/>
<line opacity="0.1" stroke="#000000" stroke-width="1" x1="30" y1="158" x2="290" y2="158"/>
<line opacity="0.1" stroke="#000000" stroke-width="1" x1="30" y1="155" x2="290" y2="155"/>
<line opacity="0.1" stroke="#000000" stroke-width="1" x1="30" y1="153" x2="290" y2="153"/>
<line opacity="0.1" stroke="#000000" stroke-width="1" x1="30" y1="150" x2="290" y2="150"/>
<line opacity="0.1" stroke="#000000" stroke-width="1" x1="30" y1="147" x2="290" y2="147"/>
<line opacity="0.1" stroke="#000000" stroke-width="1" x1="30" y1="145" x2="290" y2="145"/>
<line opacity="0.1" stroke="#000000" stroke-width="1" x1="30" y1="142" x2="290" y2="142"/>
<line opacity="0.1" stroke="#000000" stroke-width="1" x1="30" y1="139" x2="290" y2="139"/>
<line opacity="0.1" stroke="#000000" stroke-width="1" x1="30" y1="137" x2="290" y2="137"/>
<line opacity="0.1" stroke="#000000" stroke-width="1" x1="30" y1="134" x2="290" y2="134"/>
<line opacity="0.1" stroke="#000000" stroke-width="1" x1="30" y1="131" x2="290" y2="131"/>
<line opacity="0.1" stroke="#000000" stroke-width="1" x1="30" y1="129" x2="290" y2="129"/>
<line opacity="0.1" stroke="#000000" stroke-width="1" x1="30" y1="126" x2="290" y2="126"/>
<line opacity="0.1" stroke="#000000" stroke-width="1" x1="30" y1="123" x2="290" y2="123"/>
<line opacity="0.1" stroke="#000000" stroke-width="1" x1="30" y1="121" x2="290" y2="121"/>
<line opacity="0.1" stroke="#000000" stroke-width="1" x1="30" y1="118" x2="290" y2="118"/>
<line opacity="0.1" stroke="#000000" stroke-width="1" x1="30" y1="115" x2="290" y2="115"/>
<line opacity="0.1" stroke="#000000" stroke-width="1" x1="30" y1="113" x2="290" y2="113"/>
<line opacity="0.1" stroke="#000000" stroke-width="1" x1="30" y1="110" x2="290" y2="110"/>
<line opacity="0.1" stroke="#000000" stroke-width="1" x1="30" y1="107" x2="290" y2="107"/>
<line opacity="0.1" stroke="#000000" stroke-width="1" x1="30" y1="105" x2="290" y2="105"/>
<line opacity="0.1" stroke="#000000" stroke-width="1" x1="30" y1="102" x2="290" y2="102"/>
<line opacity="0.1" stroke="#000000" stroke-width="1" x1="30" y1="99" x2="290" y2="99"/>
<line opacity="0.1" stroke="#000000" stroke-width="1" x1="30" y1="97" x2="290" y2="97"/>
<line opacity="0.1" stroke="#000000" stroke-width="1" x1="30" y1="94" x2="290" y2="94"/>
<line opacity="0.1" stroke="#000000" stroke-width="1" x1="30" y1="91" x2="290" y2="91"/>
<line opacity="0.1" stroke="#000000" stroke-width="1" x1="30" y1="89" x2="290" y2="89"/>
<line opacity="0.1" stroke="#000000" stroke-width="1" x1="30" y1="86" x2="290" y2="86"/>
<line opacity="0.1" stroke="#000000" stroke-width="1" x1="30" y1="83" x2="290" y2="83"/>
<line opacity="0.1" stroke="#000000" stroke-width="1" x1="30" y1="81" x2="290" y2="81"/>
<line opacity="0.1" stroke="#000000" stroke-width="1" x1="30" y1="78" x2="290" y2="78"/>
<line opacity="0.1" stroke="#000000" stroke-width="1" x1="30" y1="75" x2="290" y2="75"/>
<line opacity="0.1" stroke="#000000" stroke-width="1" x1="30" y1="73" x2="290" y2="73"/>
<line opacity="0.1" stroke="#000000" stroke-width="1" x1="30" y1="70" x2="290" y2="70"/>
<line opacity="0.1" stroke="#000000" stroke-width="1" x1="30" y1="67" x2="290" y2="67"/>
<line opacity="0.1" stroke="#000000" stroke-width="1" x1="30" y1="65" x2="290" y2="65"/>
<line opacity="0.1" stroke="#000000" stroke-width="1" x1="30" y1="62" x2="290" y2="62"/>
<line opacity="0.1" stroke="#000000" stroke-width="1" x1="30" y1="59" x2="290" y2="59"/>
<line opacity="0.1" stroke="#000000" stroke-width="1" x1="30" y1="57" x2="290" y2="57"/>
<line opacity="0.1" stroke="#000000" stroke-width="1" x1="30" y1="54" x2="290" y2="54"/>
<line opacity="0.1" stroke="#000000" stroke-width="1" x1="30" y1="51" x2="290" y2="51"/>
<line opacity="0.1" stroke="#000000" stroke-width="1" x1="30" y1="49" x2="290" y2="49"/>
<line opacity="0.1" stroke="#000000" stroke-width="1" x1="30" y1="46" x2="290" y2="46"/>
<line opacity="0.1" stroke="#000000" stroke-width="1" x1="30" y1="43" x2="290" y2="43"/>
<line opacity="0.1" stroke="#000000" stroke-width="1" x1="30" y1="41" x2="290" y2="41"/>
<line opacity="0.1" stroke="#000000" stroke-width="1" x1="30" y1="38" x2="290" y2="38"/>
<line opacity="0.1" stroke="#000000" stroke-width="1" x1="30" y1="35" x2="290" y2="35"/>
<line opacity="0.1" stroke="#000000" stroke-width="1" x1="30" y1="33" x2="290" y2="33"/>
<line opacity="0.1" stroke="#000000" stroke-width="1" x1="30" y1="30" x2="290" y2="30"/>
<line opacity="0.1" stroke="#000000" stroke-width="1" x1="30" y1="27" x2="290" y2="27"/>
<line opacity="0.1" stroke="#000000" stroke-width="1" x1="30" y1="25" x2="290" y2="25"/>
<line opacity="0.1" stroke="#000000" stroke-width="1" x1="30" y1="22" x2="290" y2="22"/>
<line opacity="0.1" stroke="#000000" stroke-width="1" x1="30" y1="19" x2="290" y2="19"/>
<line opacity="0.1" stroke="#000000" stroke-width="1" x1="30" y1="17" x2="290" y2="17"/>
<line opacity="0.1" stroke="#000000" stroke-width="1" x1="30" y1="14" x2="290" y2="14"/>
<line opacity="0.1" stroke="#000000" stroke-width="1" x1="30" y1="11" x2="290" y2="11"/>
<line opacity="0.1" stroke="#000000" stroke-width="1" x1="30" y1="9" x2="290" y2="9"/>
<line opacity="0.2" stroke="#000000" stroke-width="1" x1="62" y1="169" x2="62" y2="9"/>
<line opacity="0.2" stroke="#000000" stroke-width="1" x1="95" y1="169" x2="95" y2="9"/>
<line opacity="0.2" stroke="#000000" stroke-width="1" x1="127" y1="169" x2="127" y2="9"/>
<line opacity="0.2" stroke="#000000" stroke-width="1" x1="160" y1="169" x2="160" y2="9"/>
<line opacity="0.2" stroke="#000000" stroke-width="1" x1="192" y1="169" x2="192" y2="9"/>
<line opacity="0.2" stroke="#000000" stroke-width="1" x1="225" y1="169" x2="225" y2="9"/>
<line opacity="0.2" stroke="#000000" stroke-width="1" x1="257" y1="169" x2="257" y2="9"/>
<line opacity="0.2" stroke="#000000" stroke-width="1" x1="290" y1="169" x2="290" y2="9"/>
<line opacity="0.2" stroke="#000000" stroke-width="1" x1="30" y1="142" x2="290" y2="142"/>
<line opacity="0.2" stroke="#000000" stroke-width="1" x1="30" y1="115" x2="290" y2="115"/>
<line opacity="0.2" stroke="#000000" stroke-width="1" x1="30" y1="89" x2="290" y2="89"/>
<line opacity="0.2" stroke="#000000" stroke-width="1" x1="30" y1="62" x2="290" y2="62"/>
<line opacity="0.2" stroke="#000000" stroke-width="1" x1="30" y1="35" x2="290" y2="35"/>
<line opacity="0.2" stroke="#000000" stroke-width="1" x1="30" y1="9" x2="290" y2="9"/>
<polyline fill="none" opacity="1" stroke="#000000" stroke-width="1" points="29,10 29,170 "/>
<text x="20" y="142" dy="0.5ex" text-anchor="end" font-family="sans-serif" font-size="9.67741935483871" opacity="1" fill="#000000">
0.5
</text>
<polyline fill="none" opacity="1" stroke="#000000" stroke-width="1" points="24,142 29,142 "/>
<text x="20" y="115" dy="0.5ex" text-anchor="end" font-family="sans-serif" font-size="9.67741935483871" opacity="1" fill="#000000">
1.0
</text>
<polyline fill="none" opacity="1" stroke="#000000" stroke-width="1" points="24,115 29,115 "/>
<text x="20" y="89" dy="0.5ex" text-anchor="end" font-family="sans-serif" font-size="9.67741935483871" opacity="1" fill="#000000">
1.5
</text>
<polyline fill="none" opacity="1" stroke="#000000" stroke-width="1" points="24,89 29,89 "/>
<text x="20" y="62" dy="0.5ex" text-anchor="end" font-family="sans-serif" font-size="9.67741935483871" opacity="1" fill="#000000">
2.0
</text>
<polyline fill="none" opacity="1" stroke="#000000" stroke-width="1" points="24,62 29,62 "/>
<text x="20" y="35" dy="0.5ex" text-anchor="end" font-family="sans-serif" font-size="9.67741935483871" opacity="1" fill="#000000">
2.5
</text>
<polyline fill="none" opacity="1" stroke="#000000" stroke-width="1" points="24,35 29,35 "/>
<polyline fill="none" opacity="1" stroke="#000000" stroke-width="1" points="30,170 290,170 "/>
<text x="62" y="180" dy="0.76em" text-anchor="middle" font-family="sans-serif" font-size="9.67741935483871" opacity="1" fill="#000000">
0.5
</text>
<polyline fill="none" opacity="1" stroke="#000000" stroke-width="1" points="62,170 62,175 "/>
<text x="95" y="180" dy="0.76em" text-anchor="middle" font-family="sans-serif" font-size="9.67741935483871" opacity="1" fill="#000000">
1.0
</text>
<polyline fill="none" opacity="1" stroke="#000000" stroke-width="1" points="95,170 95,175 "/>
<text x="127" y="180" dy="0.76em" text-anchor="middle" font-family="sans-serif" font-size="9.67741935483871" opacity="1" fill="#000000">
1.5
</text>
<polyline fill="none" opacity="1" stroke="#000000" stroke-width="1" points="127,170 127,175 "/>
<text x="160" y="180" dy="0.76em" text-anchor="middle" font-family="sans-serif" font-size="9.67741935483871" opacity="1" fill="#000000">
2.0
</text>
<polyline fill="none" opacity="1" stroke="#000000" stroke-width="1" points="160,170 160,175 "/>
<text x="192" y="180" dy="0.76em" text-anchor="middle" font-family="sans-serif" font-size="9.67741935483871" opacity="1" fill="#000000">
2.5
</text>
<polyline fill="none" opacity="1" stroke="#000000" stroke-width="1" points="192,170 192,175 "/>
<text x="225" y="180" dy="0.76em" text-anchor="middle" font-family="sans-serif" font-size="9.67741935483871" opacity="1" fill="#000000">
3.0
</text>
<polyline fill="none" opacity="1" stroke="#000000" stroke-width="1" points="225,170 225,175 "/>
<text x="257" y="180" dy="0.76em" text-anchor="middle" font-family="sans-serif" font-size="9.67741935483871" opacity="1" fill="#000000">
3.5
</text>
<polyline fill="none" opacity="1" stroke="#000000" stroke-width="1" points="257,170 257,175 "/>
<text x="290" y="180" dy="0.76em" text-anchor="middle" font-family="sans-serif" font-size="9.67741935483871" opacity="1" fill="#000000">
4.0
</text>
<polyline fill="none" opacity="1" stroke="#000000" stroke-width="1" points="290,170 290,175 "/>
<polygon opacity="0.2" fill="#000000" points="30,169 95,153 160,137 225,121 290,105 290,169 30,169 "/>
<polygon opacity="0.2" fill="#FF0000" points="30,35 95,38 160,46 225,59 290,78 290,169 30,169 "/>
<polygon opacity="0.2" fill="#0000FF" points="30,62 95,67 160,83 225,110 290,147 290,169 30,169 "/>
<polyline fill="none" opacity="1" stroke="#0000FF" stroke-width="1" points="30,62 95,67 160,83 225,110 290,147 "/>
</svg>
