<svg width="300" height="200" viewBox="0 0 300 200" xmlns="http://www.w3.org/2000/svg">
<rect x="0" y="0" width="299" height="199" opacity="1" fill="#FFFFFF" stroke="none"/>
<line opacity="0.1" stroke="#000000" stroke-width="1" x1="31" y1="172" x2="31" y2="6"/>
<line opacity="0.1" stroke="#000000" stroke-width="1" x1="36" y1="172" x2="36" y2="6"/>
<line opacity="0.1" stroke="#000000" stroke-width="1" x1="41" y1="172" x2="41" y2="6"/>
<line opacity="0.1" stroke="#000000" stroke-width="1" x1="46" y1="172" x2="46" y2="6"/>
<line opacity="0.1" stroke="#000000" stroke-width="1" x1="51" y1="172" x2="51" y2="6"/>
<line opacity="0.1" stroke="#000000" stroke-width="1" x1="56" y1="172" x2="56" y2="6"/>
<line opacity="0.1" stroke="#000000" stroke-width="1" x1="60" y1="172" x2="60" y2="6"/>
<line opacity="0.1" stroke="#000000" stroke-width="1" x1="65" y1="172" x2="65" y2="6"/>
<line opacity="0.1" stroke="#000000" stroke-width="1" x1="70" y1="172" x2="70" y2="6"/>
<line opacity="0.1" stroke="#000000" stroke-width="1" x1="75" y1="172" x2="75" y2="6"/>
<line opacity="0.1" stroke="#000000" stroke-width="1" x1="80" y1="172" x2="80" y2="6"/>
<line opacity="0.1" stroke="#000000" stroke-width="1" x1="85" y1="172" x2="85" y2="6"/>
<line opacity="0.1" stroke="#000000" stroke-width="1" x1="89" y1="172" x2="89" y2="6"/>
<line opacity="0.1" stroke="#000000" stroke-width="1" x1="94" y1="172" x2="94" y2="6"/>
<line opacity="0.1" stroke="#000000" stroke-width="1" x1="99" y1="172" x2="99" y2="6"/>
<line opacity="0.1" stroke="#000000" stroke-width="1" x1="104" y1="172" x2="104" y2="6"/>
<line opacity="0.1" stroke="#000000" stroke-width="1" x1="109" y1="172" x2="109" y2="6"/>
<line opacity="0.1" stroke="#000000" stroke-width="1" x1="114" y1="172" x2="114" y2="6"/>
<line opacity="0.1" stroke="#000000" stroke-width="1" x1="118" y1="172" x2="118" y2="6"/>
<line opacity="0.1" stroke="#000000" stroke-width="1" x1="123" y1="172" x2="123" y2="6"/>
<line opacity="0.1" stroke="#000000" stroke-width="1" x1="128" y1="172" x2="128" y2="6"/>
<line opacity="0.1" stroke="#000000" stroke-width="1" x1="133" y1="172" x2="133" y2="6"/>
<line opacity="0.1" stroke="#000000" stroke-width="1" x1="138" y1="172" x2="138" y2="6"/>
<line opacity="0.1" stroke="#000000" stroke-width="1" x1="143" y1="172" x2="143" y2="6"/>
<line opacity="0.1" stroke="#000000" stroke-width="1" x1="147" y1="172" x2="147" y2="6"/>
<line opacity="0.1" stroke="#000000" stroke-width="1" x1="152" y1="172" x2="152" y2="6"/>
<line opacity="0.1" stroke="#000000" stroke-width="1" x1="157" y1="172" x2="157" y2="6"/>
<line opacity="0.1" stroke="#000000" stroke-width="1" x1="162" y1="172" x2="162" y2="6"/>
<line opacity="0.1" stroke="#000000" stroke-width="1" x1="167" y1="172" x2="167" y2="6"/>
<line opacity="0.1" stroke="#000000" stroke-width="1" x1="172" y1="172" x2="172" y2="6"/>
<line opacity="0.1" stroke="#000000" stroke-width="1" x1="176" y1="172" x2="176" y2="6"/>
<line opacity="0.1" stroke="#000000" stroke-width="1" x1="181" y1="172" x2="181" y2="6"/>
<line opacity="0.1" stroke="#000000" stroke-width="1" x1="186" y1="172" x2="186" y2="6"/>
<line opacity="0.1" stroke="#000000" stroke-width="1" x1="191" y1="172" x2="191" y2="6"/>
<line opacity="0.1" stroke="#000000" stroke-width="1" x1="196" y1="172" x2="196" y2="6"/>
<line opacity="0.1" stroke="#000000" stroke-width="1" x1="201" y1="172" x2="201" y2="6"/>
<line opacity="0.1" stroke="#000000" stroke-width="1" x1="205" y1="172" x2="205" y2="6"/>
<line opacity="0.1" stroke="#000000" stroke-width="1" x1="210" y1="172" x2="210" y2="6"/>
<line opacity="0.1" stroke="#000000" stroke-width="1" x1="215" y1="172" x2="215" y2="6"/>
<line opacity="0.1" stroke="#000000" stroke-width="1" x1="220" y1="172" x2="220" y2="6"/>
<line opacity="0.1" stroke="#000000" stroke-width="1" x1="225" y1="172" x2="225" y2="6"/>
<line opacity="0.1" stroke="#000000" stroke-width="1" x1="230" y1="172" x2="230" y2="6"/>
<line opacity="0.1" stroke="#000000" stroke-width="1" x1="234" y1="172" x2="234" y2="6"/>
<line opacity="0.1" stroke="#000000" stroke-width="1" x1="239" y1="172" x2="239" y2="6"/>
<line opacity="0.1" stroke="#000000" stroke-width="1" x1="244" y1="172" x2="244" y2="6"/>
<line opacity="0.1" stroke="#000000" stroke-width="1" x1="249" y1="172" x2="249" y2="6"/>
<line opacity="0.1" stroke="#000000" stroke-width="1" x1="254" y1="172" x2="254" y2="6"/>
<line opacity="0.1" stroke="#000000" stroke-width="1" x1="259" y1="172" x2="259" y2="6"/>
<line opacity="0.1" stroke="#000000" stroke-width="1" x1="263" y1="172" x2="263" y2="6"/>
<line opacity="0.1" stroke="#000000" stroke-width="1" x1="268" y1="172" x2="268" y2="6"/>
<line opacity="0.1" stroke="#000000" stroke-width="1" x1="273" y1="172" x2="273" y2="6"/>
<line opacity="0.1" stroke="#000000" stroke-width="1" x1="278" y1="172" x2="278" y2="6"/>
<line opacity="0.1" stroke="#000000" stroke-width="1" x1="283" y1="172" x2="283" y2="6"/>
<line opacity="0.1" stroke="#000000" stroke-width="1" x1="288" y1="172" x2="288" y2="6"/>
<line opacity="0.1" stroke="#000000" stroke-width="1" x1="293" y1="172" x2="293" y2="6"/>
<line opacity="0.1" stroke="#000000" stroke-width="1" x1="27" y1="168" x2="293" y2="168"/>
<line opacity="0.1" stroke="#000000" stroke-width="1" x1="27" y1="165" x2="293" y2="165"/>
<line opacity="0.1" stroke="#000000" stroke-width="1" x1="27" y1="162" x2="293" y2="162"/>
<line opacity="0.1" stroke="#000000" stroke-width="1" x1="27" y1="159" x2="293" y2="159"/>
<line opacity="0.1" stroke="#000000" stroke-width="1" x1="27" y1="156" x2="293" y2="156"/>
<line opacity="0.1" stroke="#000000" stroke-width="1" x1="27" y1="153" x2="293" y2="153"/>
<line opacity="0.1" stroke="#000000" stroke-width="1" x1="27" y1="150" x2="293" y2="150"/>
<line opacity="0.1" stroke="#000000" stroke-width="1" x1="27" y1="147" x2="293" y2="147"/>
<line opacity="0.1" stroke="#000000" stroke-width="1" x1="27" y1="144" x2="293" y2="144"/>
<line opacity="0.1" stroke="#000000" stroke-width="1" x1="27" y1="141" x2="293" y2="141"/>
<line opacity="0.1" stroke="#000000" stroke-width="1" x1="27" y1="138" x2="293" y2="138"/>
<line opacity="0.1" stroke="#000000" stroke-width="1" x1="27" y1="135" x2="293" y2="135"/>
<line opacity="0.1" stroke="#000000" stroke-width="1" x1="27" y1="132" x2="293" y2="132"/>
<line opacity="0.1" stroke="#000000" stroke-width="1" x1="27" y1="129" x2="293" y2="129"/>
<line opacity="0.1" stroke="#000000" stroke-width="1" x1="27" y1="126" x2="293" y2="126"/>
<line opacity="0.1" stroke="#000000" stroke-width="1" x1="27" y1="123" x2="293" y2="123"/>
<line opacity="0.1" stroke="#000000" stroke-width="1" x1="27" y1="120" x2="293" y2="120"/>
<line opacity="0.1" stroke="#000000" stroke-width="1" x1="27" y1="117" x2="293" y2="117"/>
<line opacity="0.1" stroke="#000000" stroke-width="1" x1="27" y1="114" x2="293" y2="114"/>
<line opacity="0.1" stroke="#000000" stroke-width="1" x1="27" y1="111" x2="293" y2="111"/>
<line opacity="0.1" stroke="#000000" stroke-width="1" x1="27" y1="108" x2="293" y2="108"/>
<line opacity="0.1" stroke="#000000" stroke-width="1" x1="27" y1="105" x2="293" y2="105"/>
<line opacity="0.1" stroke="#000000" stroke-width="1" x1="27" y1="102" x2="293" y2="102"/>
<line opacity="0.1" stroke="#000000" stroke-width="1" x1="27" y1="99" x2="293" y2="99"/>
<line opacity="0.1" stroke="#000000" stroke-width="1" x1="27" y1="96" x2="293" y2="96"/>
<line opacity="0.1" stroke="#000000" stroke-width="1" x1="27" y1="93" x2="293" y2="93"/>
<line opacity="0.1" stroke="#000000" stroke-width="1" x1="27" y1="90" x2="293" y2="90"/>
<line opacity="0.1" stroke="#000000" stroke-width="1" x1="27" y1="87" x2="293" y2="87"/>
<line opacity="0.1" stroke="#000000" stroke-width="1" x1="27" y1="84" x2="293" y2="84"/>
<line opacity="0.1" stroke="#000000" stroke-width="1" x1="27" y1="81" x2="293" y2="81"/>
<line opacity="0.1" stroke="#000000" stroke-width="1" x1="27" y1="78" x2="293" y2="78"/>
<line opacity="0.1" stroke="#000000" stroke-width="1" x1="27" y1="75" x2="293" y2="75"/>
<line opacity="0.1" stroke="#000000" stroke-width="1" x1="27" y1="72" x2="293" y2="72"/>
<line opacity="0.1" stroke="#000000" stroke-width="1" x1="27" y1="69" x2="293" y2="69"/>
<line opacity="0.1" stroke="#000000" stroke-width="1" x1="27" y1="66" x2="293" y2="66"/>
<line opacity="0.1" stroke="#000000" stroke-width="1" x1="27" y1="63" x2="293" y2="63"/>
<line opacity="0.1" stroke="#000000" stroke-width="1" x1="27" y1="60" x2="293" y2="60"/>
<line opacity="0.1" stroke="#000000" stroke-width="1" x1="27" y1="57" x2="293" y2="57"/>
<line opacity="0.1" stroke="#000000" stroke-width="1" x1="27" y1="54" x2="293" y2="54"/>
<line opacity="0.1" stroke="#000000" stroke-width="1" x1="27" y1="51" x2="293" y2="51"/>
<line opacity="0.1" stroke="#000000" stroke-width="1" x1="27" y1="48" x2="293" y2="48"/>
<line opacity="0.1" stroke="#000000" stroke-width="1" x1="27" y1="45" x2="293" y2="45"/>
<line opacity="0.1" stroke="#000000" stroke-width="1" x1="27" y1="42" x2="293" y2="42"/>
<line opacity="0.1" stroke="#000000" stroke-width="1" x1="27" y1="39" x2="293" y2="39"/>
<line opacity="0.1" stroke="#000000" stroke-width="1" x1="27" y1="36" x2="293" y2="36"/>
<line opacity="0.1" stroke="#000000" stroke-width="1" x1="27" y1="33" x2="293" y2="33"/>
<line opacity="0.1" stroke="#000000" stroke-width="1" x1="27" y1="30" x2="293" y2="30"/>
<line opacity="0.1" stroke="#000000" stroke-width="1" x1="27" y1="27" x2="293" y2="27"/>
<line opacity="0.1" stroke="#000000" stroke-width="1" x1="27" y1="24" x2="293" y2="24"/>
<line opacity="0.1" stroke="#000000" stroke-width="1" x1="27" y1="21" x2="293" y2="21"/>
<line opacity="0.1" stroke="#000000" stroke-width="1" x1="27" y1="18" x2="293" y2="18"/>
<line opacity="0.1" stroke="#000000" stroke-width="1" x1="27" y1="15" x2="293" y2="15"/>
<line opacity="0.1" stroke="#000000" stroke-width="1" x1="27" y1="12" x2="293" y2="12"/>
<line opacity="0.1" stroke="#000000" stroke-width="1" x1="27" y1="9" x2="293" y2="9"/>
<line opacity="0.1" stroke="#000000" stroke-width="1" x1="27" y1="6" x2="293" y2="6"/>
<line opacity="0.2" stroke="#000000" stroke-width="1" x1="75" y1="172" x2="75" y2="6"/>
<line opacity="0.2" stroke="#000000" stroke-width="1" x1="123" y1="172" x2="123" y2="6"/>
<line opacity="0.2" stroke="#000000" stroke-width="1" x1="172" y1="172" x2="172" y2="6"/>
<line opacity="0.2" stroke="#000000" stroke-width="1" x1="220" y1="172" x2="220" y2="6"/>
<line opacity="0.2" stroke="#000000" stroke-width="1" x1="268" y1="172" x2="268" y2="6"/>
<line opacity="0.2" stroke="#000000" stroke-width="1" x1="27" y1="141" x2="293" y2="141"/>
<line opacity="0.2" stroke="#000000" stroke-width="1" x1="27" y1="111" x2="293" y2="111"/>
<line opacity="0.2" stroke="#000000" stroke-width="1" x1="27" y1="81" x2="293" y2="81"/>
<line opacity="0.2" stroke="#000000" stroke-width="1" x1="27" y1="51" x2="293" y2="51"/>
<line opacity="0.2" stroke="#000000" stroke-width="1" x1="27" y1="21" x2="293" y2="21"/>
<polyline fill="none" opacity="1" stroke="#000000" stroke-width="1" points="26,7 26,173 "/>
<text x="17" y="141" dy="0.5ex" text-anchor="end" font-family="sans-serif" font-size="9.67741935483871" opacity="1" fill="#000000">
1.0
</text>
<polyline fill="none" opacity="1" stroke="#000000" stroke-width="1" points="21,141 26,141 "/>
<text x="17" y="111" dy="0.5ex" text-anchor="end" font-family="sans-serif" font-size="9.67741935483871" opacity="1" fill="#000000">
2.0
</text>
<polyline fill="none" opacity="1" stroke="#000000" stroke-width="1" points="21,111 26,111 "/>
<text x="17" y="81" dy="0.5ex" text-anchor="end" font-family="sans-serif" font-size="9.67741935483871" opacity="1" fill="#000000">
3.0
</text>
<polyline fill="none" opacity="1" stroke="#000000" stroke-width="1" points="21,81 26,81 "/>
<text x="17" y="51" dy="0.5ex" text-anchor="end" font-family="sans-serif" font-size="9.67741935483871" opacity="1" fill="#000000">
4.0
</text>
<polyline fill="none" opacity="1" stroke="#000000" stroke-width="1" points="21,51 26,51 "/>
<text x="17" y="21" dy="0.5ex" text-anchor="end" font-family="sans-serif" font-size="9.67741935483871" opacity="1" fill="#000000">
5.0
</text>
<polyline fill="none" opacity="1" stroke="#000000" stroke-width="1" points="21,21 26,21 "/>
<polyline fill="none" opacity="1" stroke="#000000" stroke-width="1" points="27,173 293,173 "/>
<text x="75" y="183" dy="0.76em" text-anchor="middle" font-family="sans-serif" font-size="9.67741935483871" opacity="1" fill="#000000">
1.0
</text>
<polyline fill="none" opacity="1" stroke="#000000" stroke-width="1" points="75,173 75,178 "/>
<text x="123" y="183" dy="0.76em" text-anchor="middle" font-family="sans-serif" font-size="9.67741935483871" opacity="1" fill="#000000">
2.0
</text>
<polyline fill="none" opacity="1" stroke="#000000" stroke-width="1" points="123,173 123,178 "/>
<text x="172" y="183" dy="0.76em" text-anchor="middle" font-family="sans-serif" font-size="9.67741935483871" opacity="1" fill="#000000">
3.0
</text>
<polyline fill="none" opacity="1" stroke="#000000" stroke-width="1" points="172,173 172,178 "/>
<text x="220" y="183" dy="0.76em" text-anchor="middle" font-family="sans-serif" font-size="9.67741935483871" opacity="1" fill="#000000">
4.0
</text>
<polyline fill="none" opacity="1" stroke="#000000" stroke-width="1" points="220,173 220,178 "/>
<text x="268" y="183" dy="0.76em" text-anchor="middle" font-family="sans-serif" font-size="9.67741935483871" opacity="1" fill="#000000">
5.0
</text>
<polyline fill="none" opacity="1" stroke="#000000" stroke-width="1" points="268,173 268,178 "/>
<circle cx="75" cy="72" r="10" opacity="1" fill="none" stroke="#0000FF" stroke-width="1"/>
<line opacity="1" stroke="#FF0000" stroke-width="1" x1="76" y1="73" x2="82" y2="79"/>
<line opacity="1" stroke="#FF0000" stroke-width="1" x1="76" y1="79" x2="82" y2="73"/>
<rect x="79" y="68" width="1" height="1" stroke="none" opacity="1" fill="#FF0000"/>
<polygon opacity="1" fill="#FF0000" points="71,64 68,70 75,70 "/>
<circle cx="123" cy="108" r="10" opacity="1" fill="none" stroke="#0000FF" stroke-width="1"/>
<line opacity="1" stroke="#FF0000" stroke-width="1" x1="124" y1="109" x2="130" y2="115"/>
<line opacity="1" stroke="#FF0000" stroke-width="1" x1="124" y1="115" x2="130" y2="109"/>
<rect x="127" y="104" width="1" height="1" stroke="none" opacity="1" fill="#FF0000"/>
<polygon opacity="1" fill="#FF0000" points="119,100 116,106 123,106 "/>
<circle cx="172" cy="126" r="10" opacity="1" fill="none" stroke="#0000FF" stroke-width="1"/>
<line opacity="1" stroke="#FF0000" stroke-width="1" x1="173" y1="127" x2="179" y2="133"/>
<line opacity="1" stroke="#FF0000" stroke-width="1" x1="173" y1="133" x2="179" y2="127"/>
<rect x="176" y="122" width="1" height="1" stroke="none" opacity="1" fill="#FF0000"/>
<polygon opacity="1" fill="#FF0000" points="168,118 165,124 172,124 "/>
<circle cx="220" cy="114" r="10" opacity="1" fill="none" stroke="#0000FF" stroke-width="1"/>
<line opacity="1" stroke="#FF0000" stroke-width="1" x1="221" y1="115" x2="227" y2="121"/>
<line opacity="1" stroke="#FF0000" stroke-width="1" x1="221" y1="121" x2="227" y2="115"/>
<rect x="224" y="110" width="1" height="1" stroke="none" opacity="1" fill="#FF0000"/>
<polygon opacity="1" fill="#FF0000" points="216,106 213,112 220,112 "/>
<circle cx="268" cy="141" r="10" opacity="1" fill="none" stroke="#0000FF" stroke-width="1"/>
<line opacity="1" stroke="#FF0000" stroke-width="1" x1="269" y1="142" x2="275" y2="148"/>
<line opacity="1" stroke="#FF0000" stroke-width="1" x1="269" y1="148" x2="275" y2="142"/>
<rect x="272" y="137" width="1" height="1" stroke="none" opacity="1" fill="#FF0000"/>
<polygon opacity="1" fill="#FF0000" points="264,133 261,139 268,139 "/>
</svg>
