<svg width="300" height="200" viewBox="0 0 300 200" xmlns="http://www.w3.org/2000/svg">
<rect x="0" y="0" width="299" height="199" opacity="1" fill="#FFFFFF" stroke="none"/>
<polygon opacity="0.1" fill="#000000" points="118,162 118,4 41,25 41,183 "/>
<polyline fill="none" opacity="0.2" stroke="#000000" stroke-width="1" points="118,162 118,4 41,25 41,183 118,162 "/>
<polyline fill="none" opacity="0.2" stroke="#000000" stroke-width="1" points="118,143 41,164 "/>
<polyline fill="none" opacity="0.2" stroke="#000000" stroke-width="1" points="118,123 41,144 "/>
<polyline fill="none" opacity="0.2" stroke="#000000" stroke-width="1" points="118,103 41,124 "/>
<polyline fill="none" opacity="0.2" stroke="#000000" stroke-width="1" points="118,83 41,104 "/>
<polyline fill="none" opacity="0.2" stroke="#000000" stroke-width="1" points="118,64 41,84 "/>
<polyline fill="none" opacity="0.2" stroke="#000000" stroke-width="1" points="118,44 41,65 "/>
<polyline fill="none" opacity="0.2" stroke="#000000" stroke-width="1" points="118,24 41,45 "/>
<polyline fill="none" opacity="0.2" stroke="#000000" stroke-width="1" points="118,4 41,25 "/>
<polygon opacity="0.1" fill="#000000" points="118,162 41,183 181,195 258,174 "/>
<polyline fill="none" opacity="0.2" stroke="#000000" stroke-width="1" points="118,162 41,183 181,195 258,174 118,162 "/>
<polygon opacity="0.1" fill="#000000" points="118,162 258,174 258,16 118,4 "/>
<polyline fill="none" opacity="0.2" stroke="#000000" stroke-width="1" points="118,162 258,174 258,16 118,4 118,162 "/>
<polyline fill="none" opacity="0.2" stroke="#000000" stroke-width="1" points="118,143 258,154 "/>
<polyline fill="none" opacity="0.2" stroke="#000000" stroke-width="1" points="118,123 258,134 "/>
<polyline fill="none" opacity="0.2" stroke="#000000" stroke-width="1" points="118,103 258,115 "/>
<polyline fill="none" opacity="0.2" stroke="#000000" stroke-width="1" points="118,83 258,95 "/>
<polyline fill="none" opacity="0.2" stroke="#000000" stroke-width="1" points="118,64 258,75 "/>
<polyline fill="none" opacity="0.2" stroke="#000000" stroke-width="1" points="118,44 258,55 "/>
<polyline fill="none" opacity="0.2" stroke="#000000" stroke-width="1" points="118,24 258,35 "/>
<polyline fill="none" opacity="0.2" stroke="#000000" stroke-width="1" points="118,4 258,16 "/>
<polyline fill="none" opacity="0.8" stroke="#000000" stroke-width="1" points="41,183 181,195 "/>
<polyline fill="none" opacity="0.8" stroke="#000000" stroke-width="1" points="41,183 41,25 "/>
<polyline fill="none" opacity="0.8" stroke="#000000" stroke-width="1" points="41,164 36,164 "/>
<text x="31" y="164" dy="0.5ex" text-anchor="end" font-family="sans-serf" font-size="9.67741935483871" opacity="1" fill="#000000">
0.5
</text>
<polyline fill="none" opacity="0.8" stroke="#000000" stroke-width="1" points="41,144 36,144 "/>
<text x="31" y="144" dy="0.5ex" text-anchor="end" font-family="sans-serf" font-size="9.67741935483871" opacity="1" fill="#000000">
1.0
</text>
<polyline fill="none" opacity="0.8" stroke="#000000" stroke-width="1" points="41,124 36,124 "/>
<text x="31" y="124" dy="0.5ex" text-anchor="end" font-family="sans-serf" font-size="9.67741935483871" opacity="1" fill="#000000">
1.5
</text>
<polyline fill="none" opacity="0.8" stroke="#000000" stroke-width="1" points="41,104 36,104 "/>
<text x="31" y="104" dy="0.5ex" text-anchor="end" font-family="sans-serf" font-size="9.67741935483871" opacity="1" fill="#000000">
2.0
</text>
<polyline fill="none" opacity="0.8" stroke="#000000" stroke-width="1" points="41,84 36,84 "/>
<text x="31" y="84" dy="0.5ex" text-anchor="end" font-family="sans-serf" font-size="9.67741935483871" opacity="1" fill="#000000">
2.5
</text>
<polyline fill="none" opacity="0.8" stroke="#000000" stroke-width="1" points="41,65 36,65 "/>
<text x="31" y="65" dy="0.5ex" text-anchor="end" font-family="sans-serf" font-size="9.67741935483871" opacity="1" fill="#000000">
3.0
</text>
<polyline fill="none" opacity="0.8" stroke="#000000" stroke-width="1" points="41,45 36,45 "/>
<text x="31" y="45" dy="0.5ex" text-anchor="end" font-family="sans-serf" font-size="9.67741935483871" opacity="1" fill="#000000">
3.5
</text>
<polyline fill="none" opacity="0.8" stroke="#000000" stroke-width="1" points="41,25 36,25 "/>
<text x="31" y="25" dy="0.5ex" text-anchor="end" font-family="sans-serf" font-size="9.67741935483871" opacity="1" fill="#000000">
4.0
</text>
<polyline fill="none" opacity="0.8" stroke="#000000" stroke-width="1" points="258,174 181,195 "/>
</svg>
