<svg width="300" height="200" viewBox="0 0 300 200" xmlns="http://www.w3.org/2000/svg">
<rect x="0" y="0" width="299" height="199" opacity="1" fill="#FFFFFF" stroke="none"/>
<polygon opacity="0.1" fill="#00FF00" points="122,138 122,3 57,21 57,156 "/>
<polyline fill="none" opacity="0.3" stroke="#0000FF" stroke-width="1" points="122,138 122,3 57,21 57,156 122,138 "/>
<polyline fill="none" opacity="0.2" stroke="#0000FF" stroke-width="1" points="122,129 57,147 "/>
<polyline fill="none" opacity="0.2" stroke="#0000FF" stroke-width="1" points="122,120 57,138 "/>
<polyline fill="none" opacity="0.2" stroke="#0000FF" stroke-width="1" points="122,111 57,129 "/>
<polyline fill="none" opacity="0.2" stroke="#0000FF" stroke-width="1" points="122,102 57,120 "/>
<polyline fill="none" opacity="0.2" stroke="#0000FF" stroke-width="1" points="122,93 57,111 "/>
<polyline fill="none" opacity="0.2" stroke="#0000FF" stroke-width="1" points="122,85 57,102 "/>
<polyline fill="none" opacity="0.2" stroke="#0000FF" stroke-width="1" points="122,76 57,93 "/>
<polyline fill="none" opacity="0.2" stroke="#0000FF" stroke-width="1" points="122,67 57,85 "/>
<polyline fill="none" opacity="0.2" stroke="#0000FF" stroke-width="1" points="122,58 57,76 "/>
<polyline fill="none" opacity="0.2" stroke="#0000FF" stroke-width="1" points="122,49 57,67 "/>
<polyline fill="none" opacity="0.2" stroke="#0000FF" stroke-width="1" points="122,40 57,58 "/>
<polyline fill="none" opacity="0.2" stroke="#0000FF" stroke-width="1" points="122,31 57,49 "/>
<polyline fill="none" opacity="0.2" stroke="#0000FF" stroke-width="1" points="122,22 57,40 "/>
<polyline fill="none" opacity="0.2" stroke="#0000FF" stroke-width="1" points="122,13 57,31 "/>
<polyline fill="none" opacity="0.2" stroke="#0000FF" stroke-width="1" points="122,3 57,21 "/>
<polyline fill="none" opacity="0.2" stroke="#0000FF" stroke-width="1" points="110,141 110,7 "/>
<polyline fill="none" opacity="0.2" stroke="#0000FF" stroke-width="1" points="98,145 98,10 "/>
<polyline fill="none" opacity="0.2" stroke="#0000FF" stroke-width="1" points="86,148 86,13 "/>
<polyline fill="none" opacity="0.2" stroke="#0000FF" stroke-width="1" points="74,151 74,17 "/>
<polyline fill="none" opacity="0.2" stroke="#0000FF" stroke-width="1" points="62,154 62,20 "/>
<polyline fill="none" opacity="0.3" stroke="#0000FF" stroke-width="1" points="122,93 57,111 "/>
<polyline fill="none" opacity="0.3" stroke="#0000FF" stroke-width="1" points="122,49 57,67 "/>
<polyline fill="none" opacity="0.3" stroke="#0000FF" stroke-width="1" points="122,3 57,21 "/>
<polyline fill="none" opacity="0.3" stroke="#0000FF" stroke-width="1" points="74,151 74,17 "/>
<polygon opacity="0.1" fill="#00FF00" points="122,138 57,156 177,166 242,148 "/>
<polyline fill="none" opacity="0.3" stroke="#0000FF" stroke-width="1" points="122,138 57,156 177,166 242,148 122,138 "/>
<polyline fill="none" opacity="0.2" stroke="#0000FF" stroke-width="1" points="128,138 62,156 "/>
<polyline fill="none" opacity="0.2" stroke="#0000FF" stroke-width="1" points="134,139 69,157 "/>
<polyline fill="none" opacity="0.2" stroke="#0000FF" stroke-width="1" points="140,139 75,157 "/>
<polyline fill="none" opacity="0.2" stroke="#0000FF" stroke-width="1" points="146,140 81,158 "/>
<polyline fill="none" opacity="0.2" stroke="#0000FF" stroke-width="1" points="152,140 87,158 "/>
<polyline fill="none" opacity="0.2" stroke="#0000FF" stroke-width="1" points="158,141 92,159 "/>
<polyline fill="none" opacity="0.2" stroke="#0000FF" stroke-width="1" points="164,141 98,159 "/>
<polyline fill="none" opacity="0.2" stroke="#0000FF" stroke-width="1" points="170,142 105,160 "/>
<polyline fill="none" opacity="0.2" stroke="#0000FF" stroke-width="1" points="176,142 111,160 "/>
<polyline fill="none" opacity="0.2" stroke="#0000FF" stroke-width="1" points="182,143 117,161 "/>
<polyline fill="none" opacity="0.2" stroke="#0000FF" stroke-width="1" points="187,143 122,161 "/>
<polyline fill="none" opacity="0.2" stroke="#0000FF" stroke-width="1" points="194,144 128,162 "/>
<polyline fill="none" opacity="0.2" stroke="#0000FF" stroke-width="1" points="200,144 134,162 "/>
<polyline fill="none" opacity="0.2" stroke="#0000FF" stroke-width="1" points="206,145 141,163 "/>
<polyline fill="none" opacity="0.2" stroke="#0000FF" stroke-width="1" points="212,145 147,163 "/>
<polyline fill="none" opacity="0.2" stroke="#0000FF" stroke-width="1" points="217,146 152,164 "/>
<polyline fill="none" opacity="0.2" stroke="#0000FF" stroke-width="1" points="223,146 158,164 "/>
<polyline fill="none" opacity="0.2" stroke="#0000FF" stroke-width="1" points="229,147 164,165 "/>
<polyline fill="none" opacity="0.2" stroke="#0000FF" stroke-width="1" points="236,147 170,165 "/>
<polyline fill="none" opacity="0.2" stroke="#0000FF" stroke-width="1" points="242,148 177,166 "/>
<polyline fill="none" opacity="0.2" stroke="#0000FF" stroke-width="1" points="110,141 230,151 "/>
<polyline fill="none" opacity="0.2" stroke="#0000FF" stroke-width="1" points="98,145 218,154 "/>
<polyline fill="none" opacity="0.2" stroke="#0000FF" stroke-width="1" points="86,148 206,158 "/>
<polyline fill="none" opacity="0.2" stroke="#0000FF" stroke-width="1" points="74,151 194,161 "/>
<polyline fill="none" opacity="0.2" stroke="#0000FF" stroke-width="1" points="62,154 182,164 "/>
<polyline fill="none" opacity="0.3" stroke="#0000FF" stroke-width="1" points="152,140 87,158 "/>
<polyline fill="none" opacity="0.3" stroke="#0000FF" stroke-width="1" points="182,143 117,161 "/>
<polyline fill="none" opacity="0.3" stroke="#0000FF" stroke-width="1" points="212,145 147,163 "/>
<polyline fill="none" opacity="0.3" stroke="#0000FF" stroke-width="1" points="242,148 177,166 "/>
<polyline fill="none" opacity="0.3" stroke="#0000FF" stroke-width="1" points="74,151 194,161 "/>
<polygon opacity="0.1" fill="#00FF00" points="122,138 242,148 242,13 122,3 "/>
<polyline fill="none" opacity="0.3" stroke="#0000FF" stroke-width="1" points="122,138 242,148 242,13 122,3 122,138 "/>
<polyline fill="none" opacity="0.2" stroke="#0000FF" stroke-width="1" points="128,138 128,4 "/>
<polyline fill="none" opacity="0.2" stroke="#0000FF" stroke-width="1" points="134,139 134,4 "/>
<polyline fill="none" opacity="0.2" stroke="#0000FF" stroke-width="1" points="140,139 140,5 "/>
<polyline fill="none" opacity="0.2" stroke="#0000FF" stroke-width="1" points="146,140 146,5 "/>
<polyline fill="none" opacity="0.2" stroke="#0000FF" stroke-width="1" points="152,140 152,6 "/>
<polyline fill="none" opacity="0.2" stroke="#0000FF" stroke-width="1" points="158,141 158,6 "/>
<polyline fill="none" opacity="0.2" stroke="#0000FF" stroke-width="1" points="164,141 164,7 "/>
<polyline fill="none" opacity="0.2" stroke="#0000FF" stroke-width="1" points="170,142 170,7 "/>
<polyline fill="none" opacity="0.2" stroke="#0000FF" stroke-width="1" points="176,142 176,8 "/>
<polyline fill="none" opacity="0.2" stroke="#0000FF" stroke-width="1" points="182,143 182,8 "/>
<polyline fill="none" opacity="0.2" stroke="#0000FF" stroke-width="1" points="187,143 187,9 "/>
<polyline fill="none" opacity="0.2" stroke="#0000FF" stroke-width="1" points="194,144 194,9 "/>
<polyline fill="none" opacity="0.2" stroke="#0000FF" stroke-width="1" points="200,144 200,10 "/>
<polyline fill="none" opacity="0.2" stroke="#0000FF" stroke-width="1" points="206,145 206,10 "/>
<polyline fill="none" opacity="0.2" stroke="#0000FF" stroke-width="1" points="212,145 212,11 "/>
<polyline fill="none" opacity="0.2" stroke="#0000FF" stroke-width="1" points="217,146 217,11 "/>
<polyline fill="none" opacity="0.2" stroke="#0000FF" stroke-width="1" points="223,146 223,12 "/>
<polyline fill="none" opacity="0.2" stroke="#0000FF" stroke-width="1" points="229,147 229,12 "/>
<polyline fill="none" opacity="0.2" stroke="#0000FF" stroke-width="1" points="236,147 236,13 "/>
<polyline fill="none" opacity="0.2" stroke="#0000FF" stroke-width="1" points="242,148 242,13 "/>
<polyline fill="none" opacity="0.2" stroke="#0000FF" stroke-width="1" points="122,129 242,139 "/>
<polyline fill="none" opacity="0.2" stroke="#0000FF" stroke-width="1" points="122,120 242,130 "/>
<polyline fill="none" opacity="0.2" stroke="#0000FF" stroke-width="1" points="122,111 242,121 "/>
<polyline fill="none" opacity="0.2" stroke="#0000FF" stroke-width="1" points="122,102 242,112 "/>
<polyline fill="none" opacity="0.2" stroke="#0000FF" stroke-width="1" points="122,93 242,103 "/>
<polyline fill="none" opacity="0.2" stroke="#0000FF" stroke-width="1" points="122,85 242,94 "/>
<polyline fill="none" opacity="0.2" stroke="#0000FF" stroke-width="1" points="122,76 242,85 "/>
<polyline fill="none" opacity="0.2" stroke="#0000FF" stroke-width="1" points="122,67 242,76 "/>
<polyline fill="none" opacity="0.2" stroke="#0000FF" stroke-width="1" points="122,58 242,68 "/>
<polyline fill="none" opacity="0.2" stroke="#0000FF" stroke-width="1" points="122,49 242,59 "/>
<polyline fill="none" opacity="0.2" stroke="#0000FF" stroke-width="1" points="122,40 242,50 "/>
<polyline fill="none" opacity="0.2" stroke="#0000FF" stroke-width="1" points="122,31 242,41 "/>
<polyline fill="none" opacity="0.2" stroke="#0000FF" stroke-width="1" points="122,22 242,32 "/>
<polyline fill="none" opacity="0.2" stroke="#0000FF" stroke-width="1" points="122,13 242,23 "/>
<polyline fill="none" opacity="0.2" stroke="#0000FF" stroke-width="1" points="122,3 242,13 "/>
<polyline fill="none" opacity="0.3" stroke="#0000FF" stroke-width="1" points="152,140 152,6 "/>
<polyline fill="none" opacity="0.3" stroke="#0000FF" stroke-width="1" points="182,143 182,8 "/>
<polyline fill="none" opacity="0.3" stroke="#0000FF" stroke-width="1" points="212,145 212,11 "/>
<polyline fill="none" opacity="0.3" stroke="#0000FF" stroke-width="1" points="242,148 242,13 "/>
<polyline fill="none" opacity="0.3" stroke="#0000FF" stroke-width="1" points="122,93 242,103 "/>
<polyline fill="none" opacity="0.3" stroke="#0000FF" stroke-width="1" points="122,49 242,59 "/>
<polyline fill="none" opacity="0.3" stroke="#0000FF" stroke-width="1" points="122,3 242,13 "/>
<polyline fill="none" opacity="0.8" stroke="#000000" stroke-width="1" points="57,156 177,166 "/>
<polyline fill="none" opacity="0.8" stroke="#000000" stroke-width="1" points="87,158 87,166 "/>
<text x="87" y="174" dy="0.76em" text-anchor="middle" font-family="Calibri" font-size="8.064516129032258" opacity="1" fill="#000000">
x=1
</text>
<polyline fill="none" opacity="0.8" stroke="#000000" stroke-width="1" points="117,161 117,169 "/>
<text x="117" y="177" dy="0.76em" text-anchor="middle" font-family="Calibri" font-size="8.064516129032258" opacity="1" fill="#000000">
x=2
</text>
<polyline fill="none" opacity="0.8" stroke="#000000" stroke-width="1" points="147,163 147,171 "/>
<text x="147" y="179" dy="0.76em" text-anchor="middle" font-family="Calibri" font-size="8.064516129032258" opacity="1" fill="#000000">
x=3
</text>
<polyline fill="none" opacity="0.8" stroke="#000000" stroke-width="1" points="177,166 177,174 "/>
<text x="177" y="182" dy="0.76em" text-anchor="middle" font-family="Calibri" font-size="8.064516129032258" opacity="1" fill="#000000">
x=4
</text>
<polyline fill="none" opacity="0.8" stroke="#000000" stroke-width="1" points="57,156 57,21 "/>
<polyline fill="none" opacity="0.8" stroke="#000000" stroke-width="1" points="57,111 49,111 "/>
<text x="41" y="111" dy="0.5ex" text-anchor="end" font-family="Calibri" font-size="8.064516129032258" opacity="1" fill="#000000">
1.0
</text>
<polyline fill="none" opacity="0.8" stroke="#000000" stroke-width="1" points="57,67 49,67 "/>
<text x="41" y="67" dy="0.5ex" text-anchor="end" font-family="Calibri" font-size="8.064516129032258" opacity="1" fill="#000000">
2.0
</text>
<polyline fill="none" opacity="0.8" stroke="#000000" stroke-width="1" points="57,21 49,21 "/>
<text x="41" y="21" dy="0.5ex" text-anchor="end" font-family="Calibri" font-size="8.064516129032258" opacity="1" fill="#000000">
3.0
</text>
<polyline fill="none" opacity="0.8" stroke="#000000" stroke-width="1" points="242,148 177,166 "/>
<polyline fill="none" opacity="0.8" stroke="#000000" stroke-width="1" points="194,161 194,169 "/>
<text x="194" y="177" dy="0.76em" text-anchor="middle" font-family="Calibri" font-size="8.064516129032258" opacity="1" fill="#000000">
2.0
</text>
</svg>
