<svg width="300" height="200" viewBox="0 0 300 200" xmlns="http://www.w3.org/2000/svg">
<rect x="0" y="0" width="299" height="199" opacity="1" fill="#FFFFFF" stroke="none"/>
<line opacity="0.1" stroke="#000000" stroke-width="1" x1="34" y1="169" x2="34" y2="9"/>
<line opacity="0.1" stroke="#000000" stroke-width="1" x1="38" y1="169" x2="38" y2="9"/>
<line opacity="0.1" stroke="#000000" stroke-width="1" x1="43" y1="169" x2="43" y2="9"/>
<line opacity="0.1" stroke="#000000" stroke-width="1" x1="47" y1="169" x2="47" y2="9"/>
<line opacity="0.1" stroke="#000000" stroke-width="1" x1="51" y1="169" x2="51" y2="9"/>
<line opacity="0.1" stroke="#000000" stroke-width="1" x1="56" y1="169" x2="56" y2="9"/>
<line opacity="0.1" stroke="#000000" stroke-width="1" x1="60" y1="169" x2="60" y2="9"/>
<line opacity="0.1" stroke="#000000" stroke-width="1" x1="64" y1="169" x2="64" y2="9"/>
<line opacity="0.1" stroke="#000000" stroke-width="1" x1="69" y1="169" x2="69" y2="9"/>
<line opacity="0.1" stroke="#000000" stroke-width="1" x1="73" y1="169" x2="73" y2="9"/>
<line opacity="0.1" stroke="#000000" stroke-width="1" x1="77" y1="169" x2="77" y2="9"/>
<line opacity="0.1" stroke="#000000" stroke-width="1" x1="82" y1="169" x2="82" y2="9"/>
<line opacity="0.1" stroke="#000000" stroke-width="1" x1="86" y1="169" x2="86" y2="9"/>
<line opacity="0.1" stroke="#000000" stroke-width="1" x1="90" y1="169" x2="90" y2="9"/>
<line opacity="0.1" stroke="#000000" stroke-width="1" x1="95" y1="169" x2="95" y2="9"/>
<line opacity="0.1" stroke="#000000" stroke-width="1" x1="99" y1="169" x2="99" y2="9"/>
<line opacity="0.1" stroke="#000000" stroke-width="1" x1="103" y1="169" x2="103" y2="9"/>
<line opacity="0.1" stroke="#000000" stroke-width="1" x1="108" y1="169" x2="108" y2="9"/>
<line opacity="0.1" stroke="#000000" stroke-width="1" x1="112" y1="169" x2="112" y2="9"/>
<line opacity="0.1" stroke="#000000" stroke-width="1" x1="116" y1="169" x2="116" y2="9"/>
<line opacity="0.1" stroke="#000000" stroke-width="1" x1="121" y1="169" x2="121" y2="9"/>
<line opacity="0.1" stroke="#000000" stroke-width="1" x1="125" y1="169" x2="125" y2="9"/>
<line opacity="0.1" stroke="#000000" stroke-width="1" x1="129" y1="169" x2="129" y2="9"/>
<line opacity="0.1" stroke="#000000" stroke-width="1" x1="134" y1="169" x2="134" y2="9"/>
<line opacity="0.1" stroke="#000000" stroke-width="1" x1="138" y1="169" x2="138" y2="9"/>
<line opacity="0.1" stroke="#000000" stroke-width="1" x1="142" y1="169" x2="142" y2="9"/>
<line opacity="0.1" stroke="#000000" stroke-width="1" x1="147" y1="169" x2="147" y2="9"/>
<line opacity="0.1" stroke="#000000" stroke-width="1" x1="151" y1="169" x2="151" y2="9"/>
<line opacity="0.1" stroke="#000000" stroke-width="1" x1="155" y1="169" x2="155" y2="9"/>
<line opacity="0.1" stroke="#000000" stroke-width="1" x1="160" y1="169" x2="160" y2="9"/>
<line opacity="0.1" stroke="#000000" stroke-width="1" x1="164" y1="169" x2="164" y2="9"/>
<line opacity="0.1" stroke="#000000" stroke-width="1" x1="168" y1="169" x2="168" y2="9"/>
<line opacity="0.1" stroke="#000000" stroke-width="1" x1="173" y1="169" x2="173" y2="9"/>
<line opacity="0.1" stroke="#000000" stroke-width="1" x1="177" y1="169" x2="177" y2="9"/>
<line opacity="0.1" stroke="#000000" stroke-width="1" x1="181" y1="169" x2="181" y2="9"/>
<line opacity="0.1" stroke="#000000" stroke-width="1" x1="186" y1="169" x2="186" y2="9"/>
<line opacity="0.1" stroke="#000000" stroke-width="1" x1="190" y1="169" x2="190" y2="9"/>
<line opacity="0.1" stroke="#000000" stroke-width="1" x1="194" y1="169" x2="194" y2="9"/>
<line opacity="0.1" stroke="#000000" stroke-width="1" x1="199" y1="169" x2="199" y2="9"/>
<line opacity="0.1" stroke="#000000" stroke-width="1" x1="203" y1="169" x2="203" y2="9"/>
<line opacity="0.1" stroke="#000000" stroke-width="1" x1="207" y1="169" x2="207" y2="9"/>
<line opacity="0.1" stroke="#000000" stroke-width="1" x1="212" y1="169" x2="212" y2="9"/>
<line opacity="0.1" stroke="#000000" stroke-width="1" x1="216" y1="169" x2="216" y2="9"/>
<line opacity="0.1" stroke="#000000" stroke-width="1" x1="220" y1="169" x2="220" y2="9"/>
<line opacity="0.1" stroke="#000000" stroke-width="1" x1="225" y1="169" x2="225" y2="9"/>
<line opacity="0.1" stroke="#000000" stroke-width="1" x1="229" y1="169" x2="229" y2="9"/>
<line opacity="0.1" stroke="#000000" stroke-width="1" x1="233" y1="169" x2="233" y2="9"/>
<line opacity="0.1" stroke="#000000" stroke-width="1" x1="238" y1="169" x2="238" y2="9"/>
<line opacity="0.1" stroke="#000000" stroke-width="1" x1="242" y1="169" x2="242" y2="9"/>
<line opacity="0.1" stroke="#000000" stroke-width="1" x1="246" y1="169" x2="246" y2="9"/>
<line opacity="0.1" stroke="#000000" stroke-width="1" x1="251" y1="169" x2="251" y2="9"/>
<line opacity="0.1" stroke="#000000" stroke-width="1" x1="255" y1="169" x2="255" y2="9"/>
<line opacity="0.1" stroke="#000000" stroke-width="1" x1="259" y1="169" x2="259" y2="9"/>
<line opacity="0.1" stroke="#000000" stroke-width="1" x1="264" y1="169" x2="264" y2="9"/>
<line opacity="0.1" stroke="#000000" stroke-width="1" x1="268" y1="169" x2="268" y2="9"/>
<line opacity="0.1" stroke="#000000" stroke-width="1" x1="272" y1="169" x2="272" y2="9"/>
<line opacity="0.1" stroke="#000000" stroke-width="1" x1="277" y1="169" x2="277" y2="9"/>
<line opacity="0.1" stroke="#000000" stroke-width="1" x1="281" y1="169" x2="281" y2="9"/>
<line opacity="0.1" stroke="#000000" stroke-width="1" x1="285" y1="169" x2="285" y2="9"/>
<line opacity="0.1" stroke="#000000" stroke-width="1" x1="290" y1="169" x2="290" y2="9"/>
<line opacity="0.1" stroke="#000000" stroke-width="1" x1="30" y1="166" x2="290" y2="166"/>
<line opacity="0.1" stroke="#000000" stroke-width="1" x1="30" y1="163" x2="290" y2="163"/>
<line opacity="0.1" stroke="#000000" stroke-width="1" x1="30" y1="161" x2="290" y2="161"/>
<line opacity="0.1" stroke="#000000" stroke-width="1" x1="30" y1="158" x2="290" y2="158"/>
<line opacity="0.1" stroke="#000000" stroke-width="1" x1="30" y1="155" x2="290" y2="155"/>
<line opacity="0.1" stroke="#000000" stroke-width="1" x1="30" y1="153" x2="290" y2="153"/>
<line opacity="0.1" stroke="#000000" stroke-width="1" x1="30" y1="150" x2="290" y2="150"/>
<line opacity="0.1" stroke="#000000" stroke-width="1" x1="30" y1="147" x2="290" y2="147"/>
<line opacity="0.1" stroke="#000000" stroke-width="1" x1="30" y1="145" x2="290" y2="145"/>
<line opacity="0.1" stroke="#000000" stroke-width="1" x1="30" y1="142" x2="290" y2="142"/>
<line opacity="0.1" stroke="#000000" stroke-width="1" x1="30" y1="139" x2="290" y2="139"/>
<line opacity="0.1" stroke="#000000" stroke-width="1" x1="30" y1="137" x2="290" y2="137"/>
<line opacity="0.1" stroke="#000000" stroke-width="1" x1="30" y1="134" x2="290" y2="134"/>
<line opacity="0.1" stroke="#000000" stroke-width="1" x1="30" y1="131" x2="290" y2="131"/>
<line opacity="0.1" stroke="#000000" stroke-width="1" x1="30" y1="129" x2="290" y2="129"/>
<line opacity="0.1" stroke="#000000" stroke-width="1" x1="30" y1="126" x2="290" y2="126"/>
<line opacity="0.1" stroke="#000000" stroke-width="1" x1="30" y1="123" x2="290" y2="123"/>
<line opacity="0.1" stroke="#000000" stroke-width="1" x1="30" y1="121" x2="290" y2="121"/>
<line opacity="0.1" stroke="#000000" stroke-width="1" x1="30" y1="118" x2="290" y2="118"/>
<line opacity="0.1" stroke="#000000" stroke-width="1" x1="30" y1="115" x2="290" y2="115"/>
<line opacity="0.1" stroke="#000000" stroke-width="1" x1="30" y1="113" x2="290" y2="113"/>
<line opacity="0.1" stroke="#000000" stroke-width="1" x1="30" y1="110" x2="290" y2="110"/>
<line opacity="0.1" stroke="#000000" stroke-width="1" x1="30" y1="107" x2="290" y2="107"/>
<line opacity="0.1" stroke="#000000" stroke-width="1" x1="30" y1="105" x2="290" y2="105"/>
<line opacity="0.1" stroke="#000000" stroke-width="1" x1="30" y1="102" x2="290" y2="102"/>
<line opacity="0.1" stroke="#000000" stroke-width="1" x1="30" y1="99" x2="290" y2="99"/>
<line opacity="0.1" stroke="#000000" stroke-width="1" x1="30" y1="97" x2="290" y2="97"/>
<line opacity="0.1" stroke="#000000" stroke-width="1" x1="30" y1="94" x2="290" y2="94"/>
<line opacity="0.1" stroke="#000000" stroke-width="1" x1="30" y1="91" x2="290" y2="91"/>
<line opacity="0.1" stroke="#000000" stroke-width="1" x1="30" y1="89" x2="290" y2="89"/>
<line opacity="0.1" stroke="#000000" stroke-width="1" x1="30" y1="86" x2="290" y2="86"/>
<line opacity="0.1" stroke="#000000" stroke-width="1" x1="30" y1="83" x2="290" y2="83"/>
<line opacity="0.1" stroke="#000000" stroke-width="1" x1="30" y1="81" x2="290" y2="81"/>
<line opacity="0.1" stroke="#000000" stroke-width="1" x1="30" y1="78" x2="290" y2="78"/>
<line opacity="0.1" stroke="#000000" stroke-width="1" x1="30" y1="75" x2="290" y2="75"/>
<line opacity="0.1" stroke="#000000" stroke-width="1" x1="30" y1="73" x2="290" y2="73"/>
<line opacity="0.1" stroke="#000000" stroke-width="1" x1="30" y1="70" x2="290" y2="70"/>
<line opacity="0.1" stroke="#000000" stroke-width="1" x1="30" y1="67" x2="290" y2="67"/>
<line opacity="0.1" stroke="#000000" stroke-width="1" x1="30" y1="65" x2="290" y2="65"/>
<line opacity="0.1" stroke="#000000" stroke-width="1" x1="30" y1="62" x2="290" y2="62"/>
<line opacity="0.1" stroke="#000000" stroke-width="1" x1="30" y1="59" x2="290" y2="59"/>
<line opacity="0.1" stroke="#000000" stroke-width="1" x1="30" y1="57" x2="290" y2="57"/>
<line opacity="0.1" stroke="#000000" stroke-width="1" x1="30" y1="54" x2="290" y2="54"/>
<line opacity="0.1" stroke="#000000" stroke-width="1" x1="30" y1="51" x2="290" y2="51"/>
<line opacity="0.1" stroke="#000000" stroke-width="1" x1="30" y1="49" x2="290" y2="49"/>
<line opacity="0.1" stroke="#000000" stroke-width="1" x1="30" y1="46" x2="290" y2="46"/>
<line opacity="0.1" stroke="#000000" stroke-width="1" x1="30" y1="43" x2="290" y2="43"/>
<line opacity="0.1" stroke="#000000" stroke-width="1" x1="30" y1="41" x2="290" y2="41"/>
<line opacity="0.1" stroke="#000000" stroke-width="1" x1="30" y1="38" x2="290" y2="38"/>
<line opacity="0.1" stroke="#000000" stroke-width="1" x1="30" y1="35" x2="290" y2="35"/>
<line opacity="0.1" stroke="#000000" stroke-width="1" x1="30" y1="33" x2="290" y2="33"/>
<line opacity="0.1" stroke="#000000" stroke-width="1" x1="30" y1="30" x2="290" y2="30"/>
<line opacity="0.1" stroke="#000000" stroke-width="1" x1="30" y1="27" x2="290" y2="27"/>
<line opacity="0.1" stroke="#000000" stroke-width="1" x1="30" y1="25" x2="290" y2="25"/>
<line opacity="0.1" stroke="#000000" stroke-width="1" x1="30" y1="22" x2="290" y2="22"/>
<line opacity="0.1" stroke="#000000" stroke-width="1" x1="30" y1="19" x2="290" y2="19"/>
<line opacity="0.1" stroke="#000000" stroke-width="1" x1="30" y1="17" x2="290" y2="17"/>
<line opacity="0.1" stroke="#000000" stroke-width="1" x1="30" y1="14" x2="290" y2="14"/>
<line opacity="0.1" stroke="#000000" stroke-width="1" x1="30" y1="11" x2="290" y2="11"/>
<line opacity="0.1" stroke="#000000" stroke-width="1" x1="30" y1="9" x2="290" y2="9"/>
<line opacity="0.2" stroke="#000000" stroke-width="1" x1="73" y1="169" x2="73" y2="9"/>
<line opacity="0.2" stroke="#000000" stroke-width="1" x1="116" y1="169" x2="116" y2="9"/>
<line opacity="0.2" stroke="#000000" stroke-width="1" x1="160" y1="169" x2="160" y2="9"/>
<line opacity="0.2" stroke="#000000" stroke-width="1" x1="203" y1="169" x2="203" y2="9"/>
<line opacity="0.2" stroke="#000000" stroke-width="1" x1="246" y1="169" x2="246" y2="9"/>
<line opacity="0.2" stroke="#000000" stroke-width="1" x1="290" y1="169" x2="290" y2="9"/>
<line opacity="0.2" stroke="#000000" stroke-width="1" x1="30" y1="142" x2="290" y2="142"/>
<line opacity="0.2" stroke="#000000" stroke-width="1" x1="30" y1="115" x2="290" y2="115"/>
<line opacity="0.2" stroke="#000000" stroke-width="1" x1="30" y1="89" x2="290" y2="89"/>
<line opacity="0.2" stroke="#000000" stroke-width="1" x1="30" y1="62" x2="290" y2="62"/>
<line opacity="0.2" stroke="#000000" stroke-width="1" x1="30" y1="35" x2="290" y2="35"/>
<line opacity="0.2" stroke="#000000" stroke-width="1" x1="30" y1="9" x2="290" y2="9"/>
<polyline fill="none" opacity="1" stroke="#000000" stroke-width="1" points="29,10 29,170 "/>
<text x="20" y="142" dy="0.5ex" text-anchor="end" font-family="sans-serif" font-size="9.67741935483871" opacity="1" fill="#000000">
1.0
</text>
<polyline fill="none" opacity="1" stroke="#000000" stroke-width="1" points="24,142 29,142 "/>
<text x="20" y="115" dy="0.5ex" text-anchor="end" font-family="sans-serif" font-size="9.67741935483871" opacity="1" fill="#000000">
2.0
</text>
<polyline fill="none" opacity="1" stroke="#000000" stroke-width="1" points="24,115 29,115 "/>
<text x="20" y="89" dy="0.5ex" text-anchor="end" font-family="sans-serif" font-size="9.67741935483871" opacity="1" fill="#000000">
3.0
</text>
<polyline fill="none" opacity="1" stroke="#000000" stroke-width="1" points="24,89 29,89 "/>
<text x="20" y="62" dy="0.5ex" text-anchor="end" font-family="sans-serif" font-size="9.67741935483871" opacity="1" fill="#000000">
4.0
</text>
<polyline fill="none" opacity="1" stroke="#000000" stroke-width="1" points="24,62 29,62 "/>
<text x="20" y="35" dy="0.5ex" text-anchor="end" font-family="sans-serif" font-size="9.67741935483871" opacity="1" fill="#000000">
5.0
</text>
<polyline fill="none" opacity="1" stroke="#000000" stroke-width="1" points="24,35 29,35 "/>
<polyline fill="none" opacity="1" stroke="#000000" stroke-width="1" points="30,170 290,170 "/>
<text x="73" y="180" dy="0.76em" text-anchor="middle" font-family="sans-serif" font-size="9.67741935483871" opacity="1" fill="#000000">
1.0
</text>
<polyline fill="none" opacity="1" stroke="#000000" stroke-width="1" points="73,170 73,175 "/>
<text x="116" y="180" dy="0.76em" text-anchor="middle" font-family="sans-serif" font-size="9.67741935483871" opacity="1" fill="#000000">
2.0
</text>
<polyline fill="none" opacity="1" stroke="#000000" stroke-width="1" points="116,170 116,175 "/>
<text x="160" y="180" dy="0.76em" text-anchor="middle" font-family="sans-serif" font-size="9.67741935483871" opacity="1" fill="#000000">
3.0
</text>
<polyline fill="none" opacity="1" stroke="#000000" stroke-width="1" points="160,170 160,175 "/>
<text x="203" y="180" dy="0.76em" text-anchor="middle" font-family="sans-serif" font-size="9.67741935483871" opacity="1" fill="#000000">
4.0
</text>
<polyline fill="none" opacity="1" stroke="#000000" stroke-width="1" points="203,170 203,175 "/>
<text x="246" y="180" dy="0.76em" text-anchor="middle" font-family="sans-serif" font-size="9.67741935483871" opacity="1" fill="#000000">
5.0
</text>
<polyline fill="none" opacity="1" stroke="#000000" stroke-width="1" points="246,170 246,175 "/>
<text x="290" y="180" dy="0.76em" text-anchor="middle" font-family="sans-serif" font-size="9.67741935483871" opacity="1" fill="#000000">
6.0
</text>
<polyline fill="none" opacity="1" stroke="#000000" stroke-width="1" points="290,170 290,175 "/>
<line opacity="1" stroke="#0000FF" stroke-width="1" x1="155" y1="137" x2="155" y2="147"/>
<line opacity="1" stroke="#0000FF" stroke-width="1" x1="186" y1="137" x2="186" y2="147"/>
<line opacity="1" stroke="#0000FF" stroke-width="1" x1="155" y1="142" x2="186" y2="142"/>
<circle cx="173" cy="142" r="5" opacity="1" fill="#0000FF" stroke="none" stroke-width="1"/>
<line opacity="1" stroke="#0000FF" stroke-width="1" x1="103" y1="110" x2="103" y2="120"/>
<line opacity="1" stroke="#0000FF" stroke-width="1" x1="134" y1="110" x2="134" y2="120"/>
<line opacity="1" stroke="#0000FF" stroke-width="1" x1="103" y1="115" x2="134" y2="115"/>
<circle cx="121" cy="115" r="5" opacity="1" fill="#0000FF" stroke="none" stroke-width="1"/>
<line opacity="1" stroke="#0000FF" stroke-width="1" x1="77" y1="84" x2="77" y2="94"/>
<line opacity="1" stroke="#0000FF" stroke-width="1" x1="108" y1="84" x2="108" y2="94"/>
<line opacity="1" stroke="#0000FF" stroke-width="1" x1="77" y1="89" x2="108" y2="89"/>
<circle cx="95" cy="89" r="5" opacity="1" fill="#0000FF" stroke="none" stroke-width="1"/>
<line opacity="1" stroke="#0000FF" stroke-width="1" x1="95" y1="57" x2="95" y2="67"/>
<line opacity="1" stroke="#0000FF" stroke-width="1" x1="125" y1="57" x2="125" y2="67"/>
<line opacity="1" stroke="#0000FF" stroke-width="1" x1="95" y1="62" x2="125" y2="62"/>
<circle cx="112" cy="62" r="5" opacity="1" fill="#0000FF" stroke="none" stroke-width="1"/>
<line opacity="1" stroke="#0000FF" stroke-width="1" x1="56" y1="30" x2="56" y2="40"/>
<line opacity="1" stroke="#0000FF" stroke-width="1" x1="86" y1="30" x2="86" y2="40"/>
<line opacity="1" stroke="#0000FF" stroke-width="1" x1="56" y1="35" x2="86" y2="35"/>
<circle cx="73" cy="35" r="5" opacity="1" fill="#0000FF" stroke="none" stroke-width="1"/>
<line opacity="1" stroke="#FF0000" stroke-width="1" x1="216" y1="137" x2="216" y2="147"/>
<line opacity="1" stroke="#FF0000" stroke-width="1" x1="277" y1="137" x2="277" y2="147"/>
<line opacity="1" stroke="#FF0000" stroke-width="1" x1="216" y1="142" x2="277" y2="142"/>
<circle cx="255" cy="142" r="5" opacity="1" fill="none" stroke="#FF0000" stroke-width="1"/>
<line opacity="1" stroke="#FF0000" stroke-width="1" x1="164" y1="110" x2="164" y2="120"/>
<line opacity="1" stroke="#FF0000" stroke-width="1" x1="225" y1="110" x2="225" y2="120"/>
<line opacity="1" stroke="#FF0000" stroke-width="1" x1="164" y1="115" x2="225" y2="115"/>
<circle cx="203" cy="115" r="5" opacity="1" fill="none" stroke="#FF0000" stroke-width="1"/>
<line opacity="1" stroke="#FF0000" stroke-width="1" x1="138" y1="84" x2="138" y2="94"/>
<line opacity="1" stroke="#FF0000" stroke-width="1" x1="199" y1="84" x2="199" y2="94"/>
<line opacity="1" stroke="#FF0000" stroke-width="1" x1="138" y1="89" x2="199" y2="89"/>
<circle cx="177" cy="89" r="5" opacity="1" fill="none" stroke="#FF0000" stroke-width="1"/>
<line opacity="1" stroke="#FF0000" stroke-width="1" x1="155" y1="57" x2="155" y2="67"/>
<line opacity="1" stroke="#FF0000" stroke-width="1" x1="216" y1="57" x2="216" y2="67"/>
<line opacity="1" stroke="#FF0000" stroke-width="1" x1="155" y1="62" x2="216" y2="62"/>
<circle cx="194" cy="62" r="5" opacity="1" fill="none" stroke="#FF0000" stroke-width="1"/>
<line opacity="1" stroke="#FF0000" stroke-width="1" x1="116" y1="30" x2="116" y2="40"/>
<line opacity="1" stroke="#FF0000" stroke-width="1" x1="177" y1="30" x2="177" y2="40"/>
<line opacity="1" stroke="#FF0000" stroke-width="1" x1="116" y1="35" x2="177" y2="35"/>
<circle cx="155" cy="35" r="5" opacity="1" fill="none" stroke="#FF0000" stroke-width="1"/>
</svg>
