<svg width="300" height="200" viewBox="0 0 300 200" xmlns="http://www.w3.org/2000/svg">
<rect x="0" y="0" width="299" height="199" opacity="1" fill="#FFFFFF" stroke="none"/>
<line opacity="0.1" stroke="#000000" stroke-width="1" x1="73" y1="169" x2="73" y2="9"/>
<line opacity="0.1" stroke="#000000" stroke-width="1" x1="159" y1="169" x2="159" y2="9"/>
<line opacity="0.1" stroke="#000000" stroke-width="1" x1="246" y1="169" x2="246" y2="9"/>
<line opacity="0.1" stroke="#000000" stroke-width="1" x1="30" y1="169" x2="290" y2="169"/>
<line opacity="0.1" stroke="#000000" stroke-width="1" x1="30" y1="151" x2="290" y2="151"/>
<line opacity="0.1" stroke="#000000" stroke-width="1" x1="30" y1="133" x2="290" y2="133"/>
<line opacity="0.1" stroke="#000000" stroke-width="1" x1="30" y1="115" x2="290" y2="115"/>
<line opacity="0.1" stroke="#000000" stroke-width="1" x1="30" y1="97" x2="290" y2="97"/>
<line opacity="0.1" stroke="#000000" stroke-width="1" x1="30" y1="80" x2="290" y2="80"/>
<line opacity="0.1" stroke="#000000" stroke-width="1" x1="30" y1="62" x2="290" y2="62"/>
<line opacity="0.1" stroke="#000000" stroke-width="1" x1="30" y1="44" x2="290" y2="44"/>
<line opacity="0.1" stroke="#000000" stroke-width="1" x1="30" y1="26" x2="290" y2="26"/>
<line opacity="0.1" stroke="#000000" stroke-width="1" x1="30" y1="9" x2="290" y2="9"/>
<line opacity="0.2" stroke="#000000" stroke-width="1" x1="73" y1="169" x2="73" y2="9"/>
<line opacity="0.2" stroke="#000000" stroke-width="1" x1="159" y1="169" x2="159" y2="9"/>
<line opacity="0.2" stroke="#000000" stroke-width="1" x1="246" y1="169" x2="246" y2="9"/>
<line opacity="0.2" stroke="#000000" stroke-width="1" x1="30" y1="169" x2="290" y2="169"/>
<line opacity="0.2" stroke="#000000" stroke-width="1" x1="30" y1="151" x2="290" y2="151"/>
<line opacity="0.2" stroke="#000000" stroke-width="1" x1="30" y1="133" x2="290" y2="133"/>
<line opacity="0.2" stroke="#000000" stroke-width="1" x1="30" y1="115" x2="290" y2="115"/>
<line opacity="0.2" stroke="#000000" stroke-width="1" x1="30" y1="97" x2="290" y2="97"/>
<line opacity="0.2" stroke="#000000" stroke-width="1" x1="30" y1="80" x2="290" y2="80"/>
<line opacity="0.2" stroke="#000000" stroke-width="1" x1="30" y1="62" x2="290" y2="62"/>
<line opacity="0.2" stroke="#000000" stroke-width="1" x1="30" y1="44" x2="290" y2="44"/>
<line opacity="0.2" stroke="#000000" stroke-width="1" x1="30" y1="26" x2="290" y2="26"/>
<line opacity="0.2" stroke="#000000" stroke-width="1" x1="30" y1="9" x2="290" y2="9"/>
<polyline fill="none" opacity="1" stroke="#000000" stroke-width="1" points="29,10 29,170 "/>
<text x="20" y="169" dy="0.5ex" text-anchor="end" font-family="sans-serif" font-size="9.67741935483871" opacity="1" fill="#000000">
0
</text>
<polyline fill="none" opacity="1" stroke="#000000" stroke-width="1" points="24,169 29,169 "/>
<text x="20" y="151" dy="0.5ex" text-anchor="end" font-family="sans-serif" font-size="9.67741935483871" opacity="1" fill="#000000">
1
</text>
<polyline fill="none" opacity="1" stroke="#000000" stroke-width="1" points="24,151 29,151 "/>
<text x="20" y="133" dy="0.5ex" text-anchor="end" font-family="sans-serif" font-size="9.67741935483871" opacity="1" fill="#000000">
2
</text>
<polyline fill="none" opacity="1" stroke="#000000" stroke-width="1" points="24,133 29,133 "/>
<text x="20" y="115" dy="0.5ex" text-anchor="end" font-family="sans-serif" font-size="9.67741935483871" opacity="1" fill="#000000">
3
</text>
<polyline fill="none" opacity="1" stroke="#000000" stroke-width="1" points="24,115 29,115 "/>
<text x="20" y="97" dy="0.5ex" text-anchor="end" font-family="sans-serif" font-size="9.67741935483871" opacity="1" fill="#000000">
4
</text>
<polyline fill="none" opacity="1" stroke="#000000" stroke-width="1" points="24,97 29,97 "/>
<text x="20" y="80" dy="0.5ex" text-anchor="end" font-family="sans-serif" font-size="9.67741935483871" opacity="1" fill="#000000">
5
</text>
<polyline fill="none" opacity="1" stroke="#000000" stroke-width="1" points="24,80 29,80 "/>
<text x="20" y="62" dy="0.5ex" text-anchor="end" font-family="sans-serif" font-size="9.67741935483871" opacity="1" fill="#000000">
6
</text>
<polyline fill="none" opacity="1" stroke="#000000" stroke-width="1" points="24,62 29,62 "/>
<text x="20" y="44" dy="0.5ex" text-anchor="end" font-family="sans-serif" font-size="9.67741935483871" opacity="1" fill="#000000">
7
</text>
<polyline fill="none" opacity="1" stroke="#000000" stroke-width="1" points="24,44 29,44 "/>
<text x="20" y="26" dy="0.5ex" text-anchor="end" font-family="sans-serif" font-size="9.67741935483871" opacity="1" fill="#000000">
8
</text>
<polyline fill="none" opacity="1" stroke="#000000" stroke-width="1" points="24,26 29,26 "/>
<polyline fill="none" opacity="1" stroke="#000000" stroke-width="1" points="30,170 290,170 "/>
<text x="73" y="180" dy="0.76em" text-anchor="middle" font-family="sans-serif" font-size="9.67741935483871" opacity="1" fill="#000000">
1
</text>
<polyline fill="none" opacity="1" stroke="#000000" stroke-width="1" points="73,170 73,175 "/>
<text x="159" y="180" dy="0.76em" text-anchor="middle" font-family="sans-serif" font-size="9.67741935483871" opacity="1" fill="#000000">
2
</text>
<polyline fill="none" opacity="1" stroke="#000000" stroke-width="1" points="159,170 159,175 "/>
<text x="246" y="180" dy="0.76em" text-anchor="middle" font-family="sans-serif" font-size="9.67741935483871" opacity="1" fill="#000000">
3
</text>
<polyline fill="none" opacity="1" stroke="#000000" stroke-width="1" points="246,170 246,175 "/>
<rect x="213" y="80" width="67" height="89" opacity="1" fill="#0000FF" stroke="none"/>
<rect x="126" y="26" width="67" height="143" opacity="1" fill="#0000FF" stroke="none"/>
<rect x="40" y="62" width="66" height="107" opacity="1" fill="#0000FF" stroke="none"/>
</svg>
