<svg width="300" height="200" viewBox="0 0 300 200" xmlns="http://www.w3.org/2000/svg">
<rect x="0" y="0" width="299" height="199" opacity="1" fill="#FFFFFF" stroke="none"/>
<line opacity="0.1" stroke="#000000" stroke-width="1" x1="30" y1="169" x2="30" y2="9"/>
<line opacity="0.1" stroke="#000000" stroke-width="1" x1="58" y1="169" x2="58" y2="9"/>
<line opacity="0.1" stroke="#000000" stroke-width="1" x1="87" y1="169" x2="87" y2="9"/>
<line opacity="0.1" stroke="#000000" stroke-width="1" x1="116" y1="169" x2="116" y2="9"/>
<line opacity="0.1" stroke="#000000" stroke-width="1" x1="145" y1="169" x2="145" y2="9"/>
<line opacity="0.1" stroke="#000000" stroke-width="1" x1="174" y1="169" x2="174" y2="9"/>
<line opacity="0.1" stroke="#000000" stroke-width="1" x1="203" y1="169" x2="203" y2="9"/>
<line opacity="0.1" stroke="#000000" stroke-width="1" x1="232" y1="169" x2="232" y2="9"/>
<line opacity="0.1" stroke="#000000" stroke-width="1" x1="261" y1="169" x2="261" y2="9"/>
<line opacity="0.1" stroke="#000000" stroke-width="1" x1="290" y1="169" x2="290" y2="9"/>
<line opacity="0.1" stroke="#000000" stroke-width="1" x1="30" y1="142" x2="290" y2="142"/>
<line opacity="0.1" stroke="#000000" stroke-width="1" x1="30" y1="88" x2="290" y2="88"/>
<line opacity="0.1" stroke="#000000" stroke-width="1" x1="30" y1="36" x2="290" y2="36"/>
<line opacity="0.2" stroke="#000000" stroke-width="1" x1="30" y1="169" x2="30" y2="9"/>
<line opacity="0.2" stroke="#000000" stroke-width="1" x1="58" y1="169" x2="58" y2="9"/>
<line opacity="0.2" stroke="#000000" stroke-width="1" x1="87" y1="169" x2="87" y2="9"/>
<line opacity="0.2" stroke="#000000" stroke-width="1" x1="116" y1="169" x2="116" y2="9"/>
<line opacity="0.2" stroke="#000000" stroke-width="1" x1="145" y1="169" x2="145" y2="9"/>
<line opacity="0.2" stroke="#000000" stroke-width="1" x1="174" y1="169" x2="174" y2="9"/>
<line opacity="0.2" stroke="#000000" stroke-width="1" x1="203" y1="169" x2="203" y2="9"/>
<line opacity="0.2" stroke="#000000" stroke-width="1" x1="232" y1="169" x2="232" y2="9"/>
<line opacity="0.2" stroke="#000000" stroke-width="1" x1="261" y1="169" x2="261" y2="9"/>
<line opacity="0.2" stroke="#000000" stroke-width="1" x1="290" y1="169" x2="290" y2="9"/>
<line opacity="0.2" stroke="#000000" stroke-width="1" x1="30" y1="142" x2="290" y2="142"/>
<line opacity="0.2" stroke="#000000" stroke-width="1" x1="30" y1="88" x2="290" y2="88"/>
<line opacity="0.2" stroke="#000000" stroke-width="1" x1="30" y1="36" x2="290" y2="36"/>
<polyline fill="none" opacity="1" stroke="#000000" stroke-width="1" points="29,10 29,170 "/>
<text x="20" y="142" dy="0.5ex" text-anchor="end" font-family="sans-serif" font-size="9.67741935483871" opacity="1" fill="#000000">
1
</text>
<polyline fill="none" opacity="1" stroke="#000000" stroke-width="1" points="24,142 29,142 "/>
<text x="20" y="88" dy="0.5ex" text-anchor="end" font-family="sans-serif" font-size="9.67741935483871" opacity="1" fill="#000000">
2
</text>
<polyline fill="none" opacity="1" stroke="#000000" stroke-width="1" points="24,88 29,88 "/>
<text x="20" y="36" dy="0.5ex" text-anchor="end" font-family="sans-serif" font-size="9.67741935483871" opacity="1" fill="#000000">
3
</text>
<polyline fill="none" opacity="1" stroke="#000000" stroke-width="1" points="24,36 29,36 "/>
<polyline fill="none" opacity="1" stroke="#000000" stroke-width="1" points="30,170 290,170 "/>
<text x="30" y="180" dy="0.76em" text-anchor="middle" font-family="sans-serif" font-size="9.67741935483871" opacity="1" fill="#000000">
0
</text>
<polyline fill="none" opacity="1" stroke="#000000" stroke-width="1" points="30,170 30,175 "/>
<text x="58" y="180" dy="0.76em" text-anchor="middle" font-family="sans-serif" font-size="9.67741935483871" opacity="1" fill="#000000">
1
</text>
<polyline fill="none" opacity="1" stroke="#000000" stroke-width="1" points="58,170 58,175 "/>
<text x="87" y="180" dy="0.76em" text-anchor="middle" font-family="sans-serif" font-size="9.67741935483871" opacity="1" fill="#000000">
2
</text>
<polyline fill="none" opacity="1" stroke="#000000" stroke-width="1" points="87,170 87,175 "/>
<text x="116" y="180" dy="0.76em" text-anchor="middle" font-family="sans-serif" font-size="9.67741935483871" opacity="1" fill="#000000">
3
</text>
<polyline fill="none" opacity="1" stroke="#000000" stroke-width="1" points="116,170 116,175 "/>
<text x="145" y="180" dy="0.76em" text-anchor="middle" font-family="sans-serif" font-size="9.67741935483871" opacity="1" fill="#000000">
4
</text>
<polyline fill="none" opacity="1" stroke="#000000" stroke-width="1" points="145,170 145,175 "/>
<text x="174" y="180" dy="0.76em" text-anchor="middle" font-family="sans-serif" font-size="9.67741935483871" opacity="1" fill="#000000">
5
</text>
<polyline fill="none" opacity="1" stroke="#000000" stroke-width="1" points="174,170 174,175 "/>
<text x="203" y="180" dy="0.76em" text-anchor="middle" font-family="sans-serif" font-size="9.67741935483871" opacity="1" fill="#000000">
6
</text>
<polyline fill="none" opacity="1" stroke="#000000" stroke-width="1" points="203,170 203,175 "/>
<text x="232" y="180" dy="0.76em" text-anchor="middle" font-family="sans-serif" font-size="9.67741935483871" opacity="1" fill="#000000">
7
</text>
<polyline fill="none" opacity="1" stroke="#000000" stroke-width="1" points="232,170 232,175 "/>
<text x="261" y="180" dy="0.76em" text-anchor="middle" font-family="sans-serif" font-size="9.67741935483871" opacity="1" fill="#000000">
8
</text>
<polyline fill="none" opacity="1" stroke="#000000" stroke-width="1" points="261,170 261,175 "/>
<text x="290" y="180" dy="0.76em" text-anchor="middle" font-family="sans-serif" font-size="9.67741935483871" opacity="1" fill="#000000">
9
</text>
<polyline fill="none" opacity="1" stroke="#000000" stroke-width="1" points="290,170 290,175 "/>
<rect x="30" y="125" width="173" height="34" opacity="1" fill="#0000FF" stroke="none"/>
<rect x="30" y="20" width="144" height="32" opacity="1" fill="#0000FF" stroke="none"/>
<rect x="30" y="72" width="231" height="33" opacity="1" fill="#0000FF" stroke="none"/>
</svg>
