<svg width="300" height="200" viewBox="0 0 300 200" xmlns="http://www.w3.org/2000/svg">
<rect x="0" y="0" width="299" height="199" opacity="1" fill="#FFFFFF" stroke="none"/>
<line opacity="0.1" stroke="#000000" stroke-width="1" x1="70" y1="174" x2="70" y2="4"/>
<line opacity="0.1" stroke="#000000" stroke-width="1" x1="160" y1="174" x2="160" y2="4"/>
<line opacity="0.1" stroke="#000000" stroke-width="1" x1="250" y1="174" x2="250" y2="4"/>
<line opacity="0.1" stroke="#000000" stroke-width="1" x1="25" y1="174" x2="295" y2="174"/>
<line opacity="0.1" stroke="#000000" stroke-width="1" x1="25" y1="155" x2="295" y2="155"/>
<line opacity="0.1" stroke="#000000" stroke-width="1" x1="25" y1="136" x2="295" y2="136"/>
<line opacity="0.1" stroke="#000000" stroke-width="1" x1="25" y1="117" x2="295" y2="117"/>
<line opacity="0.1" stroke="#000000" stroke-width="1" x1="25" y1="98" x2="295" y2="98"/>
<line opacity="0.1" stroke="#000000" stroke-width="1" x1="25" y1="79" x2="295" y2="79"/>
<line opacity="0.1" stroke="#000000" stroke-width="1" x1="25" y1="60" x2="295" y2="60"/>
<line opacity="0.1" stroke="#000000" stroke-width="1" x1="25" y1="41" x2="295" y2="41"/>
<line opacity="0.1" stroke="#000000" stroke-width="1" x1="25" y1="22" x2="295" y2="22"/>
<line opacity="0.1" stroke="#000000" stroke-width="1" x1="25" y1="4" x2="295" y2="4"/>
<line opacity="0.2" stroke="#000000" stroke-width="1" x1="70" y1="174" x2="70" y2="4"/>
<line opacity="0.2" stroke="#000000" stroke-width="1" x1="160" y1="174" x2="160" y2="4"/>
<line opacity="0.2" stroke="#000000" stroke-width="1" x1="250" y1="174" x2="250" y2="4"/>
<line opacity="0.2" stroke="#000000" stroke-width="1" x1="25" y1="174" x2="295" y2="174"/>
<line opacity="0.2" stroke="#000000" stroke-width="1" x1="25" y1="155" x2="295" y2="155"/>
<line opacity="0.2" stroke="#000000" stroke-width="1" x1="25" y1="136" x2="295" y2="136"/>
<line opacity="0.2" stroke="#000000" stroke-width="1" x1="25" y1="117" x2="295" y2="117"/>
<line opacity="0.2" stroke="#000000" stroke-width="1" x1="25" y1="98" x2="295" y2="98"/>
<line opacity="0.2" stroke="#000000" stroke-width="1" x1="25" y1="79" x2="295" y2="79"/>
<line opacity="0.2" stroke="#000000" stroke-width="1" x1="25" y1="60" x2="295" y2="60"/>
<line opacity="0.2" stroke="#000000" stroke-width="1" x1="25" y1="41" x2="295" y2="41"/>
<line opacity="0.2" stroke="#000000" stroke-width="1" x1="25" y1="22" x2="295" y2="22"/>
<line opacity="0.2" stroke="#000000" stroke-width="1" x1="25" y1="4" x2="295" y2="4"/>
<polyline fill="none" opacity="1" stroke="#000000" stroke-width="1" points="24,5 24,175 "/>
<text x="15" y="174" dy="0.5ex" text-anchor="end" font-family="sans-serif" font-size="9.67741935483871" opacity="1" fill="#000000">
0
</text>
<polyline fill="none" opacity="1" stroke="#000000" stroke-width="1" points="19,174 24,174 "/>
<text x="15" y="155" dy="0.5ex" text-anchor="end" font-family="sans-serif" font-size="9.67741935483871" opacity="1" fill="#000000">
1
</text>
<polyline fill="none" opacity="1" stroke="#000000" stroke-width="1" points="19,155 24,155 "/>
<text x="15" y="136" dy="0.5ex" text-anchor="end" font-family="sans-serif" font-size="9.67741935483871" opacity="1" fill="#000000">
2
</text>
<polyline fill="none" opacity="1" stroke="#000000" stroke-width="1" points="19,136 24,136 "/>
<text x="15" y="117" dy="0.5ex" text-anchor="end" font-family="sans-serif" font-size="9.67741935483871" opacity="1" fill="#000000">
3
</text>
<polyline fill="none" opacity="1" stroke="#000000" stroke-width="1" points="19,117 24,117 "/>
<text x="15" y="98" dy="0.5ex" text-anchor="end" font-family="sans-serif" font-size="9.67741935483871" opacity="1" fill="#000000">
4
</text>
<polyline fill="none" opacity="1" stroke="#000000" stroke-width="1" points="19,98 24,98 "/>
<text x="15" y="79" dy="0.5ex" text-anchor="end" font-family="sans-serif" font-size="9.67741935483871" opacity="1" fill="#000000">
5
</text>
<polyline fill="none" opacity="1" stroke="#000000" stroke-width="1" points="19,79 24,79 "/>
<text x="15" y="60" dy="0.5ex" text-anchor="end" font-family="sans-serif" font-size="9.67741935483871" opacity="1" fill="#000000">
6
</text>
<polyline fill="none" opacity="1" stroke="#000000" stroke-width="1" points="19,60 24,60 "/>
<text x="15" y="41" dy="0.5ex" text-anchor="end" font-family="sans-serif" font-size="9.67741935483871" opacity="1" fill="#000000">
7
</text>
<polyline fill="none" opacity="1" stroke="#000000" stroke-width="1" points="19,41 24,41 "/>
<text x="15" y="22" dy="0.5ex" text-anchor="end" font-family="sans-serif" font-size="9.67741935483871" opacity="1" fill="#000000">
8
</text>
<polyline fill="none" opacity="1" stroke="#000000" stroke-width="1" points="19,22 24,22 "/>
<polyline fill="none" opacity="1" stroke="#000000" stroke-width="1" points="25,175 295,175 "/>
<text x="70" y="185" dy="0.76em" text-anchor="middle" font-family="sans-serif" font-size="9.67741935483871" opacity="1" fill="#000000">
1
</text>
<polyline fill="none" opacity="1" stroke="#000000" stroke-width="1" points="70,175 70,180 "/>
<text x="160" y="185" dy="0.76em" text-anchor="middle" font-family="sans-serif" font-size="9.67741935483871" opacity="1" fill="#000000">
2
</text>
<polyline fill="none" opacity="1" stroke="#000000" stroke-width="1" points="160,175 160,180 "/>
<text x="250" y="185" dy="0.76em" text-anchor="middle" font-family="sans-serif" font-size="9.67741935483871" opacity="1" fill="#000000">
3
</text>
<polyline fill="none" opacity="1" stroke="#000000" stroke-width="1" points="250,175 250,180 "/>
<rect x="125" y="22" width="70" height="114" opacity="1" fill="#0000FF" stroke="none"/>
<rect x="215" y="79" width="70" height="38" opacity="1" fill="#0000FF" stroke="none"/>
<rect x="35" y="60" width="70" height="95" opacity="1" fill="#0000FF" stroke="none"/>
</svg>
