<svg width="300" height="200" viewBox="0 0 300 200" xmlns="http://www.w3.org/2000/svg">
<rect x="0" y="0" width="299" height="199" opacity="1" fill="#FFFFFF" stroke="none"/>
<line opacity="0.1" stroke="#000000" stroke-width="1" x1="25" y1="174" x2="25" y2="4"/>
<line opacity="0.1" stroke="#000000" stroke-width="1" x1="55" y1="174" x2="55" y2="4"/>
<line opacity="0.1" stroke="#000000" stroke-width="1" x1="85" y1="174" x2="85" y2="4"/>
<line opacity="0.1" stroke="#000000" stroke-width="1" x1="115" y1="174" x2="115" y2="4"/>
<line opacity="0.1" stroke="#000000" stroke-width="1" x1="145" y1="174" x2="145" y2="4"/>
<line opacity="0.1" stroke="#000000" stroke-width="1" x1="175" y1="174" x2="175" y2="4"/>
<line opacity="0.1" stroke="#000000" stroke-width="1" x1="205" y1="174" x2="205" y2="4"/>
<line opacity="0.1" stroke="#000000" stroke-width="1" x1="235" y1="174" x2="235" y2="4"/>
<line opacity="0.1" stroke="#000000" stroke-width="1" x1="265" y1="174" x2="265" y2="4"/>
<line opacity="0.1" stroke="#000000" stroke-width="1" x1="295" y1="174" x2="295" y2="4"/>
<line opacity="0.1" stroke="#000000" stroke-width="1" x1="25" y1="145" x2="295" y2="145"/>
<line opacity="0.1" stroke="#000000" stroke-width="1" x1="25" y1="89" x2="295" y2="89"/>
<line opacity="0.1" stroke="#000000" stroke-width="1" x1="25" y1="33" x2="295" y2="33"/>
<line opacity="0.2" stroke="#000000" stroke-width="1" x1="25" y1="174" x2="25" y2="4"/>
<line opacity="0.2" stroke="#000000" stroke-width="1" x1="55" y1="174" x2="55" y2="4"/>
<line opacity="0.2" stroke="#000000" stroke-width="1" x1="85" y1="174" x2="85" y2="4"/>
<line opacity="0.2" stroke="#000000" stroke-width="1" x1="115" y1="174" x2="115" y2="4"/>
<line opacity="0.2" stroke="#000000" stroke-width="1" x1="145" y1="174" x2="145" y2="4"/>
<line opacity="0.2" stroke="#000000" stroke-width="1" x1="175" y1="174" x2="175" y2="4"/>
<line opacity="0.2" stroke="#000000" stroke-width="1" x1="205" y1="174" x2="205" y2="4"/>
<line opacity="0.2" stroke="#000000" stroke-width="1" x1="235" y1="174" x2="235" y2="4"/>
<line opacity="0.2" stroke="#000000" stroke-width="1" x1="265" y1="174" x2="265" y2="4"/>
<line opacity="0.2" stroke="#000000" stroke-width="1" x1="295" y1="174" x2="295" y2="4"/>
<line opacity="0.2" stroke="#000000" stroke-width="1" x1="25" y1="145" x2="295" y2="145"/>
<line opacity="0.2" stroke="#000000" stroke-width="1" x1="25" y1="89" x2="295" y2="89"/>
<line opacity="0.2" stroke="#000000" stroke-width="1" x1="25" y1="33" x2="295" y2="33"/>
<polyline fill="none" opacity="1" stroke="#000000" stroke-width="1" points="24,5 24,175 "/>
<text x="15" y="145" dy="0.5ex" text-anchor="end" font-family="sans-serif" font-size="9.67741935483871" opacity="1" fill="#000000">
1
</text>
<polyline fill="none" opacity="1" stroke="#000000" stroke-width="1" points="19,145 24,145 "/>
<text x="15" y="89" dy="0.5ex" text-anchor="end" font-family="sans-serif" font-size="9.67741935483871" opacity="1" fill="#000000">
2
</text>
<polyline fill="none" opacity="1" stroke="#000000" stroke-width="1" points="19,89 24,89 "/>
<text x="15" y="33" dy="0.5ex" text-anchor="end" font-family="sans-serif" font-size="9.67741935483871" opacity="1" fill="#000000">
3
</text>
<polyline fill="none" opacity="1" stroke="#000000" stroke-width="1" points="19,33 24,33 "/>
<polyline fill="none" opacity="1" stroke="#000000" stroke-width="1" points="25,175 295,175 "/>
<text x="25" y="185" dy="0.76em" text-anchor="middle" font-family="sans-serif" font-size="9.67741935483871" opacity="1" fill="#000000">
0
</text>
<polyline fill="none" opacity="1" stroke="#000000" stroke-width="1" points="25,175 25,180 "/>
<text x="55" y="185" dy="0.76em" text-anchor="middle" font-family="sans-serif" font-size="9.67741935483871" opacity="1" fill="#000000">
1
</text>
<polyline fill="none" opacity="1" stroke="#000000" stroke-width="1" points="55,175 55,180 "/>
<text x="85" y="185" dy="0.76em" text-anchor="middle" font-family="sans-serif" font-size="9.67741935483871" opacity="1" fill="#000000">
2
</text>
<polyline fill="none" opacity="1" stroke="#000000" stroke-width="1" points="85,175 85,180 "/>
<text x="115" y="185" dy="0.76em" text-anchor="middle" font-family="sans-serif" font-size="9.67741935483871" opacity="1" fill="#000000">
3
</text>
<polyline fill="none" opacity="1" stroke="#000000" stroke-width="1" points="115,175 115,180 "/>
<text x="145" y="185" dy="0.76em" text-anchor="middle" font-family="sans-serif" font-size="9.67741935483871" opacity="1" fill="#000000">
4
</text>
<polyline fill="none" opacity="1" stroke="#000000" stroke-width="1" points="145,175 145,180 "/>
<text x="175" y="185" dy="0.76em" text-anchor="middle" font-family="sans-serif" font-size="9.67741935483871" opacity="1" fill="#000000">
5
</text>
<polyline fill="none" opacity="1" stroke="#000000" stroke-width="1" points="175,175 175,180 "/>
<text x="205" y="185" dy="0.76em" text-anchor="middle" font-family="sans-serif" font-size="9.67741935483871" opacity="1" fill="#000000">
6
</text>
<polyline fill="none" opacity="1" stroke="#000000" stroke-width="1" points="205,175 205,180 "/>
<text x="235" y="185" dy="0.76em" text-anchor="middle" font-family="sans-serif" font-size="9.67741935483871" opacity="1" fill="#000000">
7
</text>
<polyline fill="none" opacity="1" stroke="#000000" stroke-width="1" points="235,175 235,180 "/>
<text x="265" y="185" dy="0.76em" text-anchor="middle" font-family="sans-serif" font-size="9.67741935483871" opacity="1" fill="#000000">
8
</text>
<polyline fill="none" opacity="1" stroke="#000000" stroke-width="1" points="265,175 265,180 "/>
<text x="295" y="185" dy="0.76em" text-anchor="middle" font-family="sans-serif" font-size="9.67741935483871" opacity="1" fill="#000000">
9
</text>
<polyline fill="none" opacity="1" stroke="#000000" stroke-width="1" points="295,175 295,180 "/>
<rect x="25" y="127" width="180" height="37" opacity="1" fill="#0000FF" stroke="none"/>
<rect x="25" y="71" width="240" height="36" opacity="1" fill="#0000FF" stroke="none"/>
<rect x="25" y="15" width="150" height="36" opacity="1" fill="#0000FF" stroke="none"/>
</svg>
