<svg width="300" height="200" viewBox="0 0 300 200" xmlns="http://www.w3.org/2000/svg">
<rect x="0" y="0" width="299" height="199" opacity="1" fill="#FFFFFF" stroke="none"/>
<line opacity="0.1" stroke="#000000" stroke-width="1" x1="38" y1="139" x2="38" y2="-1"/>
<line opacity="0.1" stroke="#000000" stroke-width="1" x1="41" y1="139" x2="41" y2="-1"/>
<line opacity="0.1" stroke="#000000" stroke-width="1" x1="44" y1="139" x2="44" y2="-1"/>
<line opacity="0.1" stroke="#000000" stroke-width="1" x1="48" y1="139" x2="48" y2="-1"/>
<line opacity="0.1" stroke="#000000" stroke-width="1" x1="51" y1="139" x2="51" y2="-1"/>
<line opacity="0.1" stroke="#000000" stroke-width="1" x1="54" y1="139" x2="54" y2="-1"/>
<line opacity="0.1" stroke="#000000" stroke-width="1" x1="58" y1="139" x2="58" y2="-1"/>
<line opacity="0.1" stroke="#000000" stroke-width="1" x1="61" y1="139" x2="61" y2="-1"/>
<line opacity="0.1" stroke="#000000" stroke-width="1" x1="64" y1="139" x2="64" y2="-1"/>
<line opacity="0.1" stroke="#000000" stroke-width="1" x1="68" y1="139" x2="68" y2="-1"/>
<line opacity="0.1" stroke="#000000" stroke-width="1" x1="71" y1="139" x2="71" y2="-1"/>
<line opacity="0.1" stroke="#000000" stroke-width="1" x1="74" y1="139" x2="74" y2="-1"/>
<line opacity="0.1" stroke="#000000" stroke-width="1" x1="78" y1="139" x2="78" y2="-1"/>
<line opacity="0.1" stroke="#000000" stroke-width="1" x1="81" y1="139" x2="81" y2="-1"/>
<line opacity="0.1" stroke="#000000" stroke-width="1" x1="84" y1="139" x2="84" y2="-1"/>
<line opacity="0.1" stroke="#000000" stroke-width="1" x1="88" y1="139" x2="88" y2="-1"/>
<line opacity="0.1" stroke="#000000" stroke-width="1" x1="91" y1="139" x2="91" y2="-1"/>
<line opacity="0.1" stroke="#000000" stroke-width="1" x1="94" y1="139" x2="94" y2="-1"/>
<line opacity="0.1" stroke="#000000" stroke-width="1" x1="97" y1="139" x2="97" y2="-1"/>
<line opacity="0.1" stroke="#000000" stroke-width="1" x1="101" y1="139" x2="101" y2="-1"/>
<line opacity="0.1" stroke="#000000" stroke-width="1" x1="104" y1="139" x2="104" y2="-1"/>
<line opacity="0.1" stroke="#000000" stroke-width="1" x1="107" y1="139" x2="107" y2="-1"/>
<line opacity="0.1" stroke="#000000" stroke-width="1" x1="111" y1="139" x2="111" y2="-1"/>
<line opacity="0.1" stroke="#000000" stroke-width="1" x1="114" y1="139" x2="114" y2="-1"/>
<line opacity="0.1" stroke="#000000" stroke-width="1" x1="117" y1="139" x2="117" y2="-1"/>
<line opacity="0.1" stroke="#000000" stroke-width="1" x1="121" y1="139" x2="121" y2="-1"/>
<line opacity="0.1" stroke="#000000" stroke-width="1" x1="124" y1="139" x2="124" y2="-1"/>
<line opacity="0.1" stroke="#000000" stroke-width="1" x1="127" y1="139" x2="127" y2="-1"/>
<line opacity="0.1" stroke="#000000" stroke-width="1" x1="131" y1="139" x2="131" y2="-1"/>
<line opacity="0.1" stroke="#000000" stroke-width="1" x1="134" y1="139" x2="134" y2="-1"/>
<line opacity="0.1" stroke="#000000" stroke-width="1" x1="137" y1="139" x2="137" y2="-1"/>
<line opacity="0.1" stroke="#000000" stroke-width="1" x1="141" y1="139" x2="141" y2="-1"/>
<line opacity="0.1" stroke="#000000" stroke-width="1" x1="144" y1="139" x2="144" y2="-1"/>
<line opacity="0.1" stroke="#000000" stroke-width="1" x1="147" y1="139" x2="147" y2="-1"/>
<line opacity="0.1" stroke="#000000" stroke-width="1" x1="150" y1="139" x2="150" y2="-1"/>
<line opacity="0.1" stroke="#000000" stroke-width="1" x1="154" y1="139" x2="154" y2="-1"/>
<line opacity="0.1" stroke="#000000" stroke-width="1" x1="157" y1="139" x2="157" y2="-1"/>
<line opacity="0.1" stroke="#000000" stroke-width="1" x1="160" y1="139" x2="160" y2="-1"/>
<line opacity="0.1" stroke="#000000" stroke-width="1" x1="164" y1="139" x2="164" y2="-1"/>
<line opacity="0.1" stroke="#000000" stroke-width="1" x1="167" y1="139" x2="167" y2="-1"/>
<line opacity="0.1" stroke="#000000" stroke-width="1" x1="170" y1="139" x2="170" y2="-1"/>
<line opacity="0.1" stroke="#000000" stroke-width="1" x1="174" y1="139" x2="174" y2="-1"/>
<line opacity="0.1" stroke="#000000" stroke-width="1" x1="177" y1="139" x2="177" y2="-1"/>
<line opacity="0.1" stroke="#000000" stroke-width="1" x1="180" y1="139" x2="180" y2="-1"/>
<line opacity="0.1" stroke="#000000" stroke-width="1" x1="184" y1="139" x2="184" y2="-1"/>
<line opacity="0.1" stroke="#000000" stroke-width="1" x1="187" y1="139" x2="187" y2="-1"/>
<line opacity="0.1" stroke="#000000" stroke-width="1" x1="190" y1="139" x2="190" y2="-1"/>
<line opacity="0.1" stroke="#000000" stroke-width="1" x1="194" y1="139" x2="194" y2="-1"/>
<line opacity="0.1" stroke="#000000" stroke-width="1" x1="197" y1="139" x2="197" y2="-1"/>
<line opacity="0.1" stroke="#000000" stroke-width="1" x1="200" y1="139" x2="200" y2="-1"/>
<line opacity="0.1" stroke="#000000" stroke-width="1" x1="203" y1="139" x2="203" y2="-1"/>
<line opacity="0.1" stroke="#000000" stroke-width="1" x1="207" y1="139" x2="207" y2="-1"/>
<line opacity="0.1" stroke="#000000" stroke-width="1" x1="210" y1="139" x2="210" y2="-1"/>
<line opacity="0.1" stroke="#000000" stroke-width="1" x1="213" y1="139" x2="213" y2="-1"/>
<line opacity="0.1" stroke="#000000" stroke-width="1" x1="217" y1="139" x2="217" y2="-1"/>
<line opacity="0.1" stroke="#000000" stroke-width="1" x1="220" y1="139" x2="220" y2="-1"/>
<line opacity="0.1" stroke="#000000" stroke-width="1" x1="223" y1="139" x2="223" y2="-1"/>
<line opacity="0.1" stroke="#000000" stroke-width="1" x1="227" y1="139" x2="227" y2="-1"/>
<line opacity="0.1" stroke="#000000" stroke-width="1" x1="230" y1="139" x2="230" y2="-1"/>
<line opacity="0.1" stroke="#000000" stroke-width="1" x1="233" y1="139" x2="233" y2="-1"/>
<line opacity="0.1" stroke="#000000" stroke-width="1" x1="237" y1="139" x2="237" y2="-1"/>
<line opacity="0.1" stroke="#000000" stroke-width="1" x1="240" y1="139" x2="240" y2="-1"/>
<line opacity="0.1" stroke="#000000" stroke-width="1" x1="243" y1="139" x2="243" y2="-1"/>
<line opacity="0.1" stroke="#000000" stroke-width="1" x1="247" y1="139" x2="247" y2="-1"/>
<line opacity="0.1" stroke="#000000" stroke-width="1" x1="250" y1="139" x2="250" y2="-1"/>
<line opacity="0.1" stroke="#000000" stroke-width="1" x1="253" y1="139" x2="253" y2="-1"/>
<line opacity="0.1" stroke="#000000" stroke-width="1" x1="256" y1="139" x2="256" y2="-1"/>
<line opacity="0.1" stroke="#000000" stroke-width="1" x1="260" y1="139" x2="260" y2="-1"/>
<line opacity="0.1" stroke="#000000" stroke-width="1" x1="263" y1="139" x2="263" y2="-1"/>
<line opacity="0.1" stroke="#000000" stroke-width="1" x1="266" y1="139" x2="266" y2="-1"/>
<line opacity="0.1" stroke="#000000" stroke-width="1" x1="270" y1="139" x2="270" y2="-1"/>
<line opacity="0.1" stroke="#000000" stroke-width="1" x1="273" y1="139" x2="273" y2="-1"/>
<line opacity="0.1" stroke="#000000" stroke-width="1" x1="276" y1="139" x2="276" y2="-1"/>
<line opacity="0.1" stroke="#000000" stroke-width="1" x1="280" y1="139" x2="280" y2="-1"/>
<line opacity="0.1" stroke="#000000" stroke-width="1" x1="283" y1="139" x2="283" y2="-1"/>
<line opacity="0.1" stroke="#000000" stroke-width="1" x1="286" y1="139" x2="286" y2="-1"/>
<line opacity="0.1" stroke="#000000" stroke-width="1" x1="290" y1="139" x2="290" y2="-1"/>
<line opacity="0.1" stroke="#000000" stroke-width="1" x1="293" y1="139" x2="293" y2="-1"/>
<line opacity="0.1" stroke="#000000" stroke-width="1" x1="296" y1="139" x2="296" y2="-1"/>
<line opacity="0.1" stroke="#000000" stroke-width="1" x1="300" y1="139" x2="300" y2="-1"/>
<line opacity="0.1" stroke="#000000" stroke-width="1" x1="35" y1="136" x2="300" y2="136"/>
<line opacity="0.1" stroke="#000000" stroke-width="1" x1="35" y1="134" x2="300" y2="134"/>
<line opacity="0.1" stroke="#000000" stroke-width="1" x1="35" y1="132" x2="300" y2="132"/>
<line opacity="0.1" stroke="#000000" stroke-width="1" x1="35" y1="129" x2="300" y2="129"/>
<line opacity="0.1" stroke="#000000" stroke-width="1" x1="35" y1="127" x2="300" y2="127"/>
<line opacity="0.1" stroke="#000000" stroke-width="1" x1="35" y1="125" x2="300" y2="125"/>
<line opacity="0.1" stroke="#000000" stroke-width="1" x1="35" y1="122" x2="300" y2="122"/>
<line opacity="0.1" stroke="#000000" stroke-width="1" x1="35" y1="120" x2="300" y2="120"/>
<line opacity="0.1" stroke="#000000" stroke-width="1" x1="35" y1="118" x2="300" y2="118"/>
<line opacity="0.1" stroke="#000000" stroke-width="1" x1="35" y1="115" x2="300" y2="115"/>
<line opacity="0.1" stroke="#000000" stroke-width="1" x1="35" y1="113" x2="300" y2="113"/>
<line opacity="0.1" stroke="#000000" stroke-width="1" x1="35" y1="111" x2="300" y2="111"/>
<line opacity="0.1" stroke="#000000" stroke-width="1" x1="35" y1="108" x2="300" y2="108"/>
<line opacity="0.1" stroke="#000000" stroke-width="1" x1="35" y1="106" x2="300" y2="106"/>
<line opacity="0.1" stroke="#000000" stroke-width="1" x1="35" y1="104" x2="300" y2="104"/>
<line opacity="0.1" stroke="#000000" stroke-width="1" x1="35" y1="101" x2="300" y2="101"/>
<line opacity="0.1" stroke="#000000" stroke-width="1" x1="35" y1="99" x2="300" y2="99"/>
<line opacity="0.1" stroke="#000000" stroke-width="1" x1="35" y1="97" x2="300" y2="97"/>
<line opacity="0.1" stroke="#000000" stroke-width="1" x1="35" y1="94" x2="300" y2="94"/>
<line opacity="0.1" stroke="#000000" stroke-width="1" x1="35" y1="92" x2="300" y2="92"/>
<line opacity="0.1" stroke="#000000" stroke-width="1" x1="35" y1="90" x2="300" y2="90"/>
<line opacity="0.1" stroke="#000000" stroke-width="1" x1="35" y1="87" x2="300" y2="87"/>
<line opacity="0.1" stroke="#000000" stroke-width="1" x1="35" y1="85" x2="300" y2="85"/>
<line opacity="0.1" stroke="#000000" stroke-width="1" x1="35" y1="83" x2="300" y2="83"/>
<line opacity="0.1" stroke="#000000" stroke-width="1" x1="35" y1="80" x2="300" y2="80"/>
<line opacity="0.1" stroke="#000000" stroke-width="1" x1="35" y1="78" x2="300" y2="78"/>
<line opacity="0.1" stroke="#000000" stroke-width="1" x1="35" y1="76" x2="300" y2="76"/>
<line opacity="0.1" stroke="#000000" stroke-width="1" x1="35" y1="73" x2="300" y2="73"/>
<line opacity="0.1" stroke="#000000" stroke-width="1" x1="35" y1="71" x2="300" y2="71"/>
<line opacity="0.1" stroke="#000000" stroke-width="1" x1="35" y1="69" x2="300" y2="69"/>
<line opacity="0.1" stroke="#000000" stroke-width="1" x1="35" y1="66" x2="300" y2="66"/>
<line opacity="0.1" stroke="#000000" stroke-width="1" x1="35" y1="64" x2="300" y2="64"/>
<line opacity="0.1" stroke="#000000" stroke-width="1" x1="35" y1="62" x2="300" y2="62"/>
<line opacity="0.1" stroke="#000000" stroke-width="1" x1="35" y1="59" x2="300" y2="59"/>
<line opacity="0.1" stroke="#000000" stroke-width="1" x1="35" y1="57" x2="300" y2="57"/>
<line opacity="0.1" stroke="#000000" stroke-width="1" x1="35" y1="55" x2="300" y2="55"/>
<line opacity="0.1" stroke="#000000" stroke-width="1" x1="35" y1="52" x2="300" y2="52"/>
<line opacity="0.1" stroke="#000000" stroke-width="1" x1="35" y1="50" x2="300" y2="50"/>
<line opacity="0.1" stroke="#000000" stroke-width="1" x1="35" y1="48" x2="300" y2="48"/>
<line opacity="0.1" stroke="#000000" stroke-width="1" x1="35" y1="45" x2="300" y2="45"/>
<line opacity="0.1" stroke="#000000" stroke-width="1" x1="35" y1="43" x2="300" y2="43"/>
<line opacity="0.1" stroke="#000000" stroke-width="1" x1="35" y1="41" x2="300" y2="41"/>
<line opacity="0.1" stroke="#000000" stroke-width="1" x1="35" y1="38" x2="300" y2="38"/>
<line opacity="0.1" stroke="#000000" stroke-width="1" x1="35" y1="36" x2="300" y2="36"/>
<line opacity="0.1" stroke="#000000" stroke-width="1" x1="35" y1="34" x2="300" y2="34"/>
<line opacity="0.1" stroke="#000000" stroke-width="1" x1="35" y1="31" x2="300" y2="31"/>
<line opacity="0.1" stroke="#000000" stroke-width="1" x1="35" y1="29" x2="300" y2="29"/>
<line opacity="0.1" stroke="#000000" stroke-width="1" x1="35" y1="27" x2="300" y2="27"/>
<line opacity="0.1" stroke="#000000" stroke-width="1" x1="35" y1="24" x2="300" y2="24"/>
<line opacity="0.1" stroke="#000000" stroke-width="1" x1="35" y1="22" x2="300" y2="22"/>
<line opacity="0.1" stroke="#000000" stroke-width="1" x1="35" y1="20" x2="300" y2="20"/>
<line opacity="0.1" stroke="#000000" stroke-width="1" x1="35" y1="17" x2="300" y2="17"/>
<line opacity="0.1" stroke="#000000" stroke-width="1" x1="35" y1="15" x2="300" y2="15"/>
<line opacity="0.1" stroke="#000000" stroke-width="1" x1="35" y1="13" x2="300" y2="13"/>
<line opacity="0.1" stroke="#000000" stroke-width="1" x1="35" y1="10" x2="300" y2="10"/>
<line opacity="0.1" stroke="#000000" stroke-width="1" x1="35" y1="8" x2="300" y2="8"/>
<line opacity="0.1" stroke="#000000" stroke-width="1" x1="35" y1="6" x2="300" y2="6"/>
<line opacity="0.1" stroke="#000000" stroke-width="1" x1="35" y1="3" x2="300" y2="3"/>
<line opacity="0.1" stroke="#000000" stroke-width="1" x1="35" y1="1" x2="300" y2="1"/>
<line opacity="0.1" stroke="#000000" stroke-width="1" x1="35" y1="-1" x2="300" y2="-1"/>
<text x="0" y="70" dy="0.76em" text-anchor="middle" font-family="sans-serif" font-size="9.67741935483871" opacity="1" fill="#000000" transform="rotate(270, 0, 70)">
Narrow Y label area
</text>
<text x="167" y="200" dy="-0.5ex" text-anchor="middle" font-family="sans-serif" font-size="9.67741935483871" opacity="1" fill="#000000">
Spacious X label area
</text>
<line opacity="0.2" stroke="#000000" stroke-width="1" x1="68" y1="139" x2="68" y2="-1"/>
<line opacity="0.2" stroke="#000000" stroke-width="1" x1="101" y1="139" x2="101" y2="-1"/>
<line opacity="0.2" stroke="#000000" stroke-width="1" x1="134" y1="139" x2="134" y2="-1"/>
<line opacity="0.2" stroke="#000000" stroke-width="1" x1="167" y1="139" x2="167" y2="-1"/>
<line opacity="0.2" stroke="#000000" stroke-width="1" x1="200" y1="139" x2="200" y2="-1"/>
<line opacity="0.2" stroke="#000000" stroke-width="1" x1="233" y1="139" x2="233" y2="-1"/>
<line opacity="0.2" stroke="#000000" stroke-width="1" x1="266" y1="139" x2="266" y2="-1"/>
<line opacity="0.2" stroke="#000000" stroke-width="1" x1="300" y1="139" x2="300" y2="-1"/>
<line opacity="0.2" stroke="#000000" stroke-width="1" x1="35" y1="115" x2="300" y2="115"/>
<line opacity="0.2" stroke="#000000" stroke-width="1" x1="35" y1="92" x2="300" y2="92"/>
<line opacity="0.2" stroke="#000000" stroke-width="1" x1="35" y1="69" x2="300" y2="69"/>
<line opacity="0.2" stroke="#000000" stroke-width="1" x1="35" y1="45" x2="300" y2="45"/>
<line opacity="0.2" stroke="#000000" stroke-width="1" x1="35" y1="22" x2="300" y2="22"/>
<line opacity="0.2" stroke="#000000" stroke-width="1" x1="35" y1="-1" x2="300" y2="-1"/>
<polyline fill="none" opacity="1" stroke="#000000" stroke-width="1" points="34,0 34,140 "/>
<text x="25" y="115" dy="0.5ex" text-anchor="end" font-family="sans-serif" font-size="9.67741935483871" opacity="1" fill="#000000">
0.5
</text>
<polyline fill="none" opacity="1" stroke="#000000" stroke-width="1" points="29,115 34,115 "/>
<text x="25" y="92" dy="0.5ex" text-anchor="end" font-family="sans-serif" font-size="9.67741935483871" opacity="1" fill="#000000">
1.0
</text>
<polyline fill="none" opacity="1" stroke="#000000" stroke-width="1" points="29,92 34,92 "/>
<text x="25" y="69" dy="0.5ex" text-anchor="end" font-family="sans-serif" font-size="9.67741935483871" opacity="1" fill="#000000">
1.5
</text>
<polyline fill="none" opacity="1" stroke="#000000" stroke-width="1" points="29,69 34,69 "/>
<text x="25" y="45" dy="0.5ex" text-anchor="end" font-family="sans-serif" font-size="9.67741935483871" opacity="1" fill="#000000">
2.0
</text>
<polyline fill="none" opacity="1" stroke="#000000" stroke-width="1" points="29,45 34,45 "/>
<text x="25" y="22" dy="0.5ex" text-anchor="end" font-family="sans-serif" font-size="9.67741935483871" opacity="1" fill="#000000">
2.5
</text>
<polyline fill="none" opacity="1" stroke="#000000" stroke-width="1" points="29,22 34,22 "/>
<polyline fill="none" opacity="1" stroke="#000000" stroke-width="1" points="35,140 300,140 "/>
<text x="68" y="150" dy="0.76em" text-anchor="middle" font-family="sans-serif" font-size="9.67741935483871" opacity="1" fill="#000000">
0.5
</text>
<polyline fill="none" opacity="1" stroke="#000000" stroke-width="1" points="68,140 68,145 "/>
<text x="101" y="150" dy="0.76em" text-anchor="middle" font-family="sans-serif" font-size="9.67741935483871" opacity="1" fill="#000000">
1.0
</text>
<polyline fill="none" opacity="1" stroke="#000000" stroke-width="1" points="101,140 101,145 "/>
<text x="134" y="150" dy="0.76em" text-anchor="middle" font-family="sans-serif" font-size="9.67741935483871" opacity="1" fill="#000000">
1.5
</text>
<polyline fill="none" opacity="1" stroke="#000000" stroke-width="1" points="134,140 134,145 "/>
<text x="167" y="150" dy="0.76em" text-anchor="middle" font-family="sans-serif" font-size="9.67741935483871" opacity="1" fill="#000000">
2.0
</text>
<polyline fill="none" opacity="1" stroke="#000000" stroke-width="1" points="167,140 167,145 "/>
<text x="200" y="150" dy="0.76em" text-anchor="middle" font-family="sans-serif" font-size="9.67741935483871" opacity="1" fill="#000000">
2.5
</text>
<polyline fill="none" opacity="1" stroke="#000000" stroke-width="1" points="200,140 200,145 "/>
<text x="233" y="150" dy="0.76em" text-anchor="middle" font-family="sans-serif" font-size="9.67741935483871" opacity="1" fill="#000000">
3.0
</text>
<polyline fill="none" opacity="1" stroke="#000000" stroke-width="1" points="233,140 233,145 "/>
<text x="266" y="150" dy="0.76em" text-anchor="middle" font-family="sans-serif" font-size="9.67741935483871" opacity="1" fill="#000000">
3.5
</text>
<polyline fill="none" opacity="1" stroke="#000000" stroke-width="1" points="266,140 266,145 "/>
<text x="300" y="150" dy="0.76em" text-anchor="middle" font-family="sans-serif" font-size="9.67741935483871" opacity="1" fill="#000000">
4.0
</text>
<polyline fill="none" opacity="1" stroke="#000000" stroke-width="1" points="300,140 300,145 "/>
</svg>
